  0
SECTION
  2
HEADER
  9
$ACADVER
  1
AC1009
  9
$EXTMAX
 10
6.0
 20
2.9058558940888
 30
0.0
  9
$EXTMIN
 10
0.0
 20
-12.0481233596802
 30
0.0
  9
$INSUNITS
 70
     4
  9
$LUNITS
 70
     2
  9
$LUPREC
 70
     4
  9
$MEASUREMENT
 70
     1
  0
ENDSEC
  0
SECTION
  2
TABLES
  0
TABLE
  2
LAYER
 70
     1
  0
LAYER
  2
0
 70
     0
 62
     7
  6
Continuous
  0
LAYER
  2
MMBT2222A
 70
     0
 62
     1
  6
Continuous
  0
LAYER
  2
trace
 70
     0
 62
     4
  6
Continuous
  0
LAYER
  2
piste
 70
     0
 62
    30
  6
Continuous
  0
LAYER
  2
pcb
 70
     0
 62
     6
  6
Continuous
  0
ENDTAB
  0
TABLE
  2
APPID
 70
     1
  0
APPID
  2
ACAD
 70
     0
  0
ENDTAB
  0
ENDSEC
  0
SECTION
  2
ENTITIES
  0
POLYLINE
  8
MMBT2222A
 66
     1
 10
0.0
 20
0.0
 30
0.0
 70
     1
  0
VERTEX
  8
MMBT2222A
 10
2.0
 20
-5.0
 42
0.0
  0
VERTEX
  8
MMBT2222A
 10
5.0
 20
-5.0
 42
0.0
  0
VERTEX
  8
MMBT2222A
 10
5.0
 20
-3.6
 42
0.0
  0
VERTEX
  8
MMBT2222A
 10
2.0
 20
-3.6
 42
0.0
  0
SEQEND
  0
POLYLINE
  8
MMBT2222A
 66
     1
 10
0.0
 20
0.0
 30
0.0
 70
     1
  0
VERTEX
  8
MMBT2222A
 10
2.25
 20
-5.7
 42
0.0
  0
VERTEX
  8
MMBT2222A
 10
2.75
 20
-5.7
 42
0.0
  0
VERTEX
  8
MMBT2222A
 10
2.75
 20
-5.0
 42
0.0
  0
VERTEX
  8
MMBT2222A
 10
2.25
 20
-5.0
 42
0.0
  0
SEQEND
  0
POLYLINE
  8
MMBT2222A
 66
     1
 10
0.0
 20
0.0
 30
0.0
 70
     1
  0
VERTEX
  8
MMBT2222A
 10
2.25
 20
-5.7
 42
0.0
  0
VERTEX
  8
MMBT2222A
 10
2.5
 20
-5.7
 42
0.0
  0
VERTEX
  8
MMBT2222A
 10
2.5
 20
-5.0
 42
0.0
  0
VERTEX
  8
MMBT2222A
 10
2.25
 20
-5.0
 42
0.0
  0
SEQEND
  0
POLYLINE
  8
MMBT2222A
 66
     1
 10
0.0
 20
0.0
 30
0.0
 70
     1
  0
VERTEX
  8
MMBT2222A
 10
4.25
 20
-5.7
 42
0.0
  0
VERTEX
  8
MMBT2222A
 10
4.75
 20
-5.7
 42
0.0
  0
VERTEX
  8
MMBT2222A
 10
4.75
 20
-5.0
 42
0.0
  0
VERTEX
  8
MMBT2222A
 10
4.25
 20
-5.0
 42
0.0
  0
SEQEND
  0
POLYLINE
  8
MMBT2222A
 66
     1
 10
0.0
 20
0.0
 30
0.0
 70
     1
  0
VERTEX
  8
MMBT2222A
 10
4.25
 20
-5.7
 42
0.0
  0
VERTEX
  8
MMBT2222A
 10
4.5
 20
-5.7
 42
0.0
  0
VERTEX
  8
MMBT2222A
 10
4.5
 20
-5.0
 42
0.0
  0
VERTEX
  8
MMBT2222A
 10
4.25
 20
-5.0
 42
0.0
  0
SEQEND
  0
POLYLINE
  8
MMBT2222A
 66
     1
 10
0.0
 20
0.0
 30
0.0
 70
     1
  0
VERTEX
  8
MMBT2222A
 10
3.25
 20
-3.6
 42
0.0
  0
VERTEX
  8
MMBT2222A
 10
3.75
 20
-3.6
 42
0.0
  0
VERTEX
  8
MMBT2222A
 10
3.75
 20
-2.9
 42
0.0
  0
VERTEX
  8
MMBT2222A
 10
3.25
 20
-2.9
 42
0.0
  0
SEQEND
  0
POLYLINE
  8
MMBT2222A
 66
     1
 10
0.0
 20
0.0
 30
0.0
 70
     1
  0
VERTEX
  8
MMBT2222A
 10
3.25
 20
-3.6
 42
0.0
  0
VERTEX
  8
MMBT2222A
 10
3.5
 20
-3.6
 42
0.0
  0
VERTEX
  8
MMBT2222A
 10
3.5
 20
-2.9
 42
0.0
  0
VERTEX
  8
MMBT2222A
 10
3.25
 20
-2.9
 42
0.0
  0
SEQEND
  0
POLYLINE
  8
MMBT2222A
 66
     1
 10
0.0
 20
0.0
 30
0.0
 70
     1
  0
VERTEX
  8
MMBT2222A
 10
3.6229737263757
 20
-3.0241016006089
 42
0.0
  0
VERTEX
  8
MMBT2222A
 10
3.6193848591882
 20
-3.0383105849839
 42
-0.068648605986
  0
VERTEX
  8
MMBT2222A
 10
3.604677355677
 20
-3.0324784656469
 42
-0.0950710956716
  0
VERTEX
  8
MMBT2222A
 10
3.5926514607507
 20
-3.0221973037339
 42
-0.093370503266
  0
VERTEX
  8
MMBT2222A
 10
3.5856241313652
 20
-3.0088161840414
 42
-0.0752637058343
  0
VERTEX
  8
MMBT2222A
 10
3.5834961873132
 20
-2.9938525771714
 42
-0.0551770992678
  0
VERTEX
  8
MMBT2222A
 10
3.5849912822959
 20
-2.9792143180765
 42
-0.0881186942818
  0
VERTEX
  8
MMBT2222A
 10
3.5905274373132
 20
-2.9655810927964
 42
-0.0809741741383
  0
VERTEX
  8
MMBT2222A
 10
3.599534982357
 20
-2.955760557446
 42
-0.0668361967091
  0
VERTEX
  8
MMBT2222A
 10
3.6110352498132
 20
-2.9490283584214
 42
-0.1008022821475
  0
VERTEX
  8
MMBT2222A
 10
3.6398194295007
 20
-2.9433887099839
 42
-0.0508202292755
  0
VERTEX
  8
MMBT2222A
 10
3.654810990843
 20
-2.9448331441151
 42
-0.0677264673931
  0
VERTEX
  8
MMBT2222A
 10
3.6690430623132
 20
-2.9497607802964
 42
-0.1532648293579
  0
VERTEX
  8
MMBT2222A
 10
3.6880127888757
 20
-2.9679980849839
 42
-0.1281998954387
  0
VERTEX
  8
MMBT2222A
 10
3.6945313435632
 20
-2.9940723037339
 42
-0.0699256881112
  0
VERTEX
  8
MMBT2222A
 10
3.6926593996277
 20
-3.0082970213045
 42
-0.0914771350626
  0
VERTEX
  8
MMBT2222A
 10
3.6863282185632
 20
-3.0211719131089
 42
-0.089647724104
  0
VERTEX
  8
MMBT2222A
 10
3.6760680626005
 20
-3.0307481050922
 42
-0.0731726787952
  0
VERTEX
  8
MMBT2222A
 10
3.6632569295007
 20
-3.0364795302964
 42
0.0
  0
VERTEX
  8
MMBT2222A
 10
3.6599610310632
 20
-3.0224902724839
 42
0.0573075002293
  0
VERTEX
  8
MMBT2222A
 10
3.6693264661265
 20
-3.0183813206659
 42
0.0971824777755
  0
VERTEX
  8
MMBT2222A
 10
3.6770264607507
 20
-3.0116504287339
 42
0.0939503575946
  0
VERTEX
  8
MMBT2222A
 10
3.6811739379429
 20
-3.0031559119365
 42
0.0683462227
  0
VERTEX
  8
MMBT2222A
 10
3.6823731404382
 20
-2.9937793349839
 42
0.065634309815
  0
VERTEX
  8
MMBT2222A
 10
3.6810397089143
 20
-2.982948208207
 42
0.0896727851029
  0
VERTEX
  8
MMBT2222A
 10
3.6764405232507
 20
-2.9730517959214
 42
0.1614421229241
  0
VERTEX
  8
MMBT2222A
 10
3.6604737263757
 20
-2.9614062881089
 42
0.0822708190152
  0
VERTEX
  8
MMBT2222A
 10
3.6398926716882
 20
-2.9580371474839
 42
0.0382556236599
  0
VERTEX
  8
MMBT2222A
 10
3.6277363583723
 20
-2.9589173363082
 42
0.0537206083087
  0
VERTEX
  8
MMBT2222A
 10
3.6159424763757
 20
-2.9619922256089
 42
0.0748591135507
  0
VERTEX
  8
MMBT2222A
 10
3.6072746155953
 20
-2.9669322825489
 42
0.0897846732087
  0
VERTEX
  8
MMBT2222A
 10
3.6007081013757
 20
-2.9744433974839
 42
0.1384891446706
  0
VERTEX
  8
MMBT2222A
 10
3.5956543904382
 20
-2.9926807021714
 42
0.0798048929238
  0
VERTEX
  8
MMBT2222A
 10
3.597276628772
 20
-3.0034080288229
 42
0.0951517255024
  0
VERTEX
  8
MMBT2222A
 10
3.6025391560632
 20
-3.0128955459214
 42
0.1007651377784
  0
VERTEX
  8
MMBT2222A
 10
3.6118122971521
 20
-3.0202202529565
 42
0.0661407005893
  0
SEQEND
  0
POLYLINE
  8
MMBT2222A
 66
     1
 10
0.0
 20
0.0
 30
0.0
 70
     1
  0
VERTEX
  8
MMBT2222A
 10
3.6242188435632
 20
-3.0492236709214
 42
-0.0793096936787
  0
VERTEX
  8
MMBT2222A
 10
3.6415449091873
 20
-3.0517051476969
 42
-0.1374207317704
  0
VERTEX
  8
MMBT2222A
 10
3.6562256795007
 20
-3.0612353896714
 42
-0.096263100432
  0
VERTEX
  8
MMBT2222A
 10
3.662811580214
 20
-3.0726667616072
 42
-0.0831137495427
  0
VERTEX
  8
MMBT2222A
 10
3.6648682576257
 20
-3.0856982802964
 42
-0.0934089194758
  0
VERTEX
  8
MMBT2222A
 10
3.6623695495407
 20
-3.0999247240765
 42
-0.1096263509906
  0
VERTEX
  8
MMBT2222A
 10
3.6543213826257
 20
-3.1119189834214
 42
-0.1171189234928
  0
VERTEX
  8
MMBT2222A
 10
3.6408309868437
 20
-3.1198911522428
 42
-0.0774662695115
  0
VERTEX
  8
MMBT2222A
 10
3.6253174763757
 20
-3.1220996474839
 42
-0.0406641775012
  0
VERTEX
  8
MMBT2222A
 10
3.6132253596417
 20
-3.1212019204886
 42
-0.0791503273496
  0
VERTEX
  8
MMBT2222A
 10
3.6016602498132
 20
-3.1175586318589
 42
-0.1510120015038
  0
VERTEX
  8
MMBT2222A
 10
3.5883301716882
 20
-3.1044482802964
 42
-0.1294988566368
  0
VERTEX
  8
MMBT2222A
 10
3.5835694295007
 20
-3.0856982802964
 42
-0.0911724948852
  0
VERTEX
  8
MMBT2222A
 10
3.5860132836342
 20
-3.0713717153139
 42
-0.1118836502062
  0
VERTEX
  8
MMBT2222A
 10
3.5940430623132
 20
-3.0592578506089
 42
-0.1209671023324
  0
VERTEX
  8
MMBT2222A
 10
3.6081576098231
 20
-3.0513136291015
 42
-0.0714526457578
  0
SEQEND
  0
POLYLINE
  8
MMBT2222A
 66
     1
 10
0.0
 20
0.0
 30
0.0
 70
     1
  0
VERTEX
  8
MMBT2222A
 10
3.6242188435632
 20
-3.0627734756089
 42
0.0602733930122
  0
VERTEX
  8
MMBT2222A
 10
3.6124375735133
 20
-3.0640550461241
 42
0.1192897023427
  0
VERTEX
  8
MMBT2222A
 10
3.6018067341882
 20
-3.0692920302964
 42
0.225829144534
  0
VERTEX
  8
MMBT2222A
 10
3.5944092732507
 20
-3.0856982802964
 42
0.2272931422955
  0
VERTEX
  8
MMBT2222A
 10
3.6018799763757
 20
-3.1020312881089
 42
0.1206046753197
  0
VERTEX
  8
MMBT2222A
 10
3.6126980334214
 20
-3.1072862085702
 42
0.0586771310173
  0
VERTEX
  8
MMBT2222A
 10
3.6246582966882
 20
-3.1085498427964
 42
0.0633962461497
  0
VERTEX
  8
MMBT2222A
 10
3.636167808863
 20
-3.1072287827992
 42
0.1191858816916
  0
VERTEX
  8
MMBT2222A
 10
3.6464844685632
 20
-3.1019580459214
 42
0.22727685936
  0
VERTEX
  8
MMBT2222A
 10
3.6539551716882
 20
-3.0856982802964
 42
0.2258325838835
  0
VERTEX
  8
MMBT2222A
 10
3.6465577107507
 20
-3.0692920302964
 42
0.1204891174352
  0
VERTEX
  8
MMBT2222A
 10
3.6359667534202
 20
-3.064050325957
 42
0.0602735550367
  0
SEQEND
  0
POLYLINE
  8
MMBT2222A
 66
     1
 10
0.0
 20
0.0
 30
0.0
 70
     1
  0
VERTEX
  8
MMBT2222A
 10
3.5853272420007
 20
-3.1372607802964
 42
0.0
  0
VERTEX
  8
MMBT2222A
 10
3.6927002888757
 20
-3.1372607802964
 42
0.0
  0
VERTEX
  8
MMBT2222A
 10
3.6927002888757
 20
-3.1504443740464
 42
0.0
  0
VERTEX
  8
MMBT2222A
 10
3.5853272420007
 20
-3.1504443740464
 42
0.0
  0
SEQEND
  0
POLYLINE
  8
MMBT2222A
 66
     1
 10
0.0
 20
0.0
 30
0.0
 70
     1
  0
VERTEX
  8
MMBT2222A
 10
3.5853272420007
 20
-3.1705859756089
 42
0.0
  0
VERTEX
  8
MMBT2222A
 10
3.6927002888757
 20
-3.1705859756089
 42
0.0
  0
VERTEX
  8
MMBT2222A
 10
3.6927002888757
 20
-3.1837695693589
 42
0.0
  0
VERTEX
  8
MMBT2222A
 10
3.5853272420007
 20
-3.1837695693589
 42
0.0
  0
SEQEND
  0
POLYLINE
  8
MMBT2222A
 66
     1
 10
0.0
 20
0.0
 30
0.0
 70
     1
  0
VERTEX
  8
MMBT2222A
 10
3.6103760701257
 20
-3.2574512099839
 42
0.0
  0
VERTEX
  8
MMBT2222A
 10
3.6086914998132
 20
-3.2710742568589
 42
-0.0744951226198
  0
VERTEX
  8
MMBT2222A
 10
3.5984102453714
 20
-3.2666821830837
 42
-0.0916625925887
  0
VERTEX
  8
MMBT2222A
 10
3.5901612263757
 20
-3.2591357802964
 42
-0.0958072865576
  0
VERTEX
  8
MMBT2222A
 10
3.5850277152797
 20
-3.2485469960402
 42
-0.0670142962809
  0
VERTEX
  8
MMBT2222A
 10
3.5835694295007
 20
-3.2368701552964
 42
-0.0873659590534
  0
VERTEX
  8
MMBT2222A
 10
3.5859435953147
 20
-3.2222139743258
 42
-0.1165827064356
  0
VERTEX
  8
MMBT2222A
 10
3.5940430623132
 20
-3.2097705459214
 42
-0.1170137955897
  0
VERTEX
  8
MMBT2222A
 10
3.6078372916623
 20
-3.2019333163855
 42
-0.0737457503298
  0
VERTEX
  8
MMBT2222A
 10
3.6235596638757
 20
-3.1998096084214
 42
-0.0721871771471
  0
VERTEX
  8
MMBT2222A
 10
3.6397607970475
 20
-3.2019490265743
 42
-0.1168609454388
  0
VERTEX
  8
MMBT2222A
 10
3.6540284138757
 20
-3.2099170302964
 42
-0.1115030288521
  0
VERTEX
  8
MMBT2222A
 10
3.6622911161738
 20
-3.2218521571949
 42
-0.0959907381905
  0
VERTEX
  8
MMBT2222A
 10
3.6648682576257
 20
-3.2361377334214
 42
-0.0971073902144
  0
VERTEX
  8
MMBT2222A
 10
3.6623262521136
 20
-3.2500352284567
 42
-0.1105791978688
  0
VERTEX
  8
MMBT2222A
 10
3.6542481404382
 20
-3.2616260146714
 42
-0.1169080505539
  0
VERTEX
  8
MMBT2222A
 10
3.6402509930505
 20
-3.2694236285582
 42
-0.0719320890453
  0
VERTEX
  8
MMBT2222A
 10
3.6243653279382
 20
-3.2715137099839
 42
-0.0066807442817
  0
VERTEX
  8
MMBT2222A
 10
3.6208497029382
 20
-3.2714404677964
 42
0.0
  0
VERTEX
  8
MMBT2222A
 10
3.6208497029382
 20
-3.2134326552964
 42
0.0662267765334
  0
VERTEX
  8
MMBT2222A
 10
3.6103895904493
 20
-3.2153102964764
 42
0.1112847549224
  0
VERTEX
  8
MMBT2222A
 10
3.6012207966882
 20
-3.2206836318589
 42
0.213485807897
  0
VERTEX
  8
MMBT2222A
 10
3.5944092732507
 20
-3.2369433974839
 42
0.1644570590433
  0
VERTEX
  8
MMBT2222A
 10
3.5982178670007
 20
-3.2493213271714
 42
0.0923477561377
  0
VERTEX
  8
MMBT2222A
 10
3.6037054568929
 20
-3.2542708707781
 42
0.0543524083443
  0
SEQEND
  0
POLYLINE
  8
MMBT2222A
 66
     1
 10
0.0
 20
0.0
 30
0.0
 70
     1
  0
VERTEX
  8
MMBT2222A
 10
3.6316895466882
 20
-3.2141650771714
 42
0.0
  0
VERTEX
  8
MMBT2222A
 10
3.6316895466882
 20
-3.2575976943589
 42
0.0503626359992
  0
VERTEX
  8
MMBT2222A
 10
3.6394160627574
 20
-3.2561883663323
 42
0.1005734561429
  0
VERTEX
  8
MMBT2222A
 10
3.6464112263757
 20
-3.2526172256089
 42
0.2353231982218
  0
VERTEX
  8
MMBT2222A
 10
3.6540284138757
 20
-3.2362842177964
 42
0.2034874291997
  0
VERTEX
  8
MMBT2222A
 10
3.6479493123132
 20
-3.2209766006089
 42
0.104552746485
  0
VERTEX
  8
MMBT2222A
 10
3.6404605060267
 20
-3.2160405327728
 42
0.0787524247924
  0
SEQEND
  0
POLYLINE
  8
MMBT2222A
 66
     1
 10
0.0
 20
0.0
 30
0.0
 70
     1
  0
VERTEX
  8
MMBT2222A
 10
3.6138184529382
 20
-3.3383838271714
 42
0.0
  0
VERTEX
  8
MMBT2222A
 10
3.6121338826257
 20
-3.3513476943589
 42
-0.0766738449482
  0
VERTEX
  8
MMBT2222A
 10
3.6006369876222
 20
-3.3477915972491
 42
-0.0996595828213
  0
VERTEX
  8
MMBT2222A
 10
3.5911133748132
 20
-3.3404346084214
 42
-0.0977050987291
  0
VERTEX
  8
MMBT2222A
 10
3.5853493815554
 20
-3.3304048944006
 42
-0.0822677413329
  0
VERTEX
  8
MMBT2222A
 10
3.5835694295007
 20
-3.3189746474839
 42
-0.0929691319583
  0
VERTEX
  8
MMBT2222A
 10
3.5859972814554
 20
-3.3049990708848
 42
-0.1139400809707
  0
VERTEX
  8
MMBT2222A
 10
3.5939698201257
 20
-3.2932666396714
 42
-0.1182040655333
  0
VERTEX
  8
MMBT2222A
 10
3.6080360889258
 20
-3.2856075759424
 42
-0.0693798107384
  0
VERTEX
  8
MMBT2222A
 10
3.6239258748132
 20
-3.2835986709214
 42
-0.0440609342872
  0
VERTEX
  8
MMBT2222A
 10
3.6351663085395
 20
-3.284537621401
 42
-0.0600474687005
  0
VERTEX
  8
MMBT2222A
 10
3.6459717732507
 20
-3.2877734756089
 42
-0.1683987561948
  0
VERTEX
  8
MMBT2222A
 10
3.6601075154382
 20
-3.3004443740464
 42
-0.1295404161004
  0
VERTEX
  8
MMBT2222A
 10
3.6648682576257
 20
-3.3190478896714
 42
-0.0704139169736
  0
VERTEX
  8
MMBT2222A
 10
3.6634360613857
 20
-3.3299684070085
 42
-0.0994199677306
  0
VERTEX
  8
MMBT2222A
 10
3.6584229451257
 20
-3.3397754287339
 42
-0.1015767551808
  0
VERTEX
  8
MMBT2222A
 10
3.6502915674472
 20
-3.3466110791159
 42
-0.077795247546
  0
VERTEX
  8
MMBT2222A
 10
3.6402588826257
 20
-3.3501025771714
 42
0.0
  0
VERTEX
  8
MMBT2222A
 10
3.6382813435632
 20
-3.3372851943589
 42
0.0626788958805
  0
VERTEX
  8
MMBT2222A
 10
3.6447039147798
 20
-3.3349784873696
 42
0.0980948323356
  0
VERTEX
  8
MMBT2222A
 10
3.6500733357507
 20
-3.3307666396714
 42
0.1845169928128
  0
VERTEX
  8
MMBT2222A
 10
3.6540284138757
 20
-3.3195605849839
 42
0.1037207529652
  0
VERTEX
  8
MMBT2222A
 10
3.6522847869199
 20
-3.3106490720643
 42
0.1130484033781
  0
VERTEX
  8
MMBT2222A
 10
3.6468506795007
 20
-3.3033740615464
 42
0.123887726229
  0
VERTEX
  8
MMBT2222A
 10
3.6361084008095
 20
-3.2983153682133
 42
0.0551797226292
  0
VERTEX
  8
MMBT2222A
 10
3.6242920857507
 20
-3.2971484756089
 42
0.0521958566386
  0
VERTEX
  8
MMBT2222A
 10
3.6124035856882
 20
-3.2982575547219
 42
0.048067614013
  0
VERTEX
  8
MMBT2222A
 10
3.606660433804
 20
-3.3000426906401
 42
0.0743405872489
  0
VERTEX
  8
MMBT2222A
 10
3.6015137654382
 20
-3.3031543349839
 42
0.2319034244509
  0
VERTEX
  8
MMBT2222A
 10
3.5944092732507
 20
-3.3188281631089
 42
0.0857739648287
  0
VERTEX
  8
MMBT2222A
 10
3.5955344744842
 20
-3.3257710336646
 42
0.1013673703152
  0
VERTEX
  8
MMBT2222A
 10
3.5991700154382
 20
-3.3317920302964
 42
0.1108163842636
  0
VERTEX
  8
MMBT2222A
 10
3.6059273518544
 20
-3.3363476748849
 42
0.0621162872272
  0
SEQEND
  0
POLYLINE
  8
MMBT2222A
 66
     1
 10
0.0
 20
0.0
 30
0.0
 70
     1
  0
VERTEX
  8
MMBT2222A
 10
3.5971192341882
 20
-3.3914111709214
 42
0.0
  0
VERTEX
  8
MMBT2222A
 10
3.5854737263757
 20
-3.3933154677964
 42
-0.0509781648809
  0
VERTEX
  8
MMBT2222A
 10
3.5843018513757
 20
-3.3833545302964
 42
-0.0426373349095
  0
VERTEX
  8
MMBT2222A
 10
3.5847440715514
 20
-3.3776467813926
 42
-0.0863650760854
  0
VERTEX
  8
MMBT2222A
 10
3.5865723591882
 20
-3.3722217177964
 42
-0.1633617775928
  0
VERTEX
  8
MMBT2222A
 10
3.5925049763757
 20
-3.3666553115464
 42
-0.059343736057
  0
VERTEX
  8
MMBT2222A
 10
3.5963267156414
 20
-3.3656919076978
 42
-0.0343908651145
  0
VERTEX
  8
MMBT2222A
 10
3.6081055623132
 20
-3.3650439834214
 42
0.0
  0
VERTEX
  8
MMBT2222A
 10
3.6528565388757
 20
-3.3650439834214
 42
0.0
  0
VERTEX
  8
MMBT2222A
 10
3.6528565388757
 20
-3.3553760146714
 42
0.0
  0
VERTEX
  8
MMBT2222A
 10
3.6631104451257
 20
-3.3553760146714
 42
0.0
  0
VERTEX
  8
MMBT2222A
 10
3.6631104451257
 20
-3.3650439834214
 42
0.0
  0
VERTEX
  8
MMBT2222A
 10
3.6823731404382
 20
-3.3650439834214
 42
0.0
  0
VERTEX
  8
MMBT2222A
 10
3.6902832966882
 20
-3.3781543349839
 42
0.0
  0
VERTEX
  8
MMBT2222A
 10
3.6631104451257
 20
-3.3781543349839
 42
0.0
  0
VERTEX
  8
MMBT2222A
 10
3.6631104451257
 20
-3.3914111709214
 42
0.0
  0
VERTEX
  8
MMBT2222A
 10
3.6528565388757
 20
-3.3914111709214
 42
0.0
  0
VERTEX
  8
MMBT2222A
 10
3.6528565388757
 20
-3.3781543349839
 42
0.0
  0
VERTEX
  8
MMBT2222A
 10
3.6073731404382
 20
-3.3781543349839
 42
0.0142820439242
  0
VERTEX
  8
MMBT2222A
 10
3.6037260310377
 20
-3.3782460690468
 42
0.0660366411484
  0
VERTEX
  8
MMBT2222A
 10
3.6001221638757
 20
-3.3788135146714
 42
0.1518727572144
  0
VERTEX
  8
MMBT2222A
 10
3.5975586873132
 20
-3.3810840224839
 42
0.127831324342
  0
VERTEX
  8
MMBT2222A
 10
3.5966065388757
 20
-3.3856250381089
 42
0.0328761808587
  0
SEQEND
  0
POLYLINE
  8
MMBT2222A
 66
     1
 10
0.0
 20
0.0
 30
0.0
 70
     1
  0
VERTEX
  8
MMBT2222A
 10
3.6242188435632
 20
-3.3993945693589
 42
-0.0793096936787
  0
VERTEX
  8
MMBT2222A
 10
3.6415449091873
 20
-3.4018760461344
 42
-0.1374207317704
  0
VERTEX
  8
MMBT2222A
 10
3.6562256795007
 20
-3.4114062881089
 42
-0.096263100432
  0
VERTEX
  8
MMBT2222A
 10
3.662811580214
 20
-3.4228376600447
 42
-0.0831137495427
  0
VERTEX
  8
MMBT2222A
 10
3.6648682576257
 20
-3.4358691787339
 42
-0.0934089194758
  0
VERTEX
  8
MMBT2222A
 10
3.6623695495407
 20
-3.450095622514
 42
-0.1096263509906
  0
VERTEX
  8
MMBT2222A
 10
3.6543213826257
 20
-3.4620898818589
 42
-0.1171189234928
  0
VERTEX
  8
MMBT2222A
 10
3.6408309868437
 20
-3.4700620506803
 42
-0.0774662695115
  0
VERTEX
  8
MMBT2222A
 10
3.6253174763757
 20
-3.4722705459214
 42
-0.0406641775012
  0
VERTEX
  8
MMBT2222A
 10
3.6132253596417
 20
-3.4713728189261
 42
-0.0791503273496
  0
VERTEX
  8
MMBT2222A
 10
3.6016602498132
 20
-3.4677295302964
 42
-0.1510120015038
  0
VERTEX
  8
MMBT2222A
 10
3.5883301716882
 20
-3.4546191787339
 42
-0.1294988566368
  0
VERTEX
  8
MMBT2222A
 10
3.5835694295007
 20
-3.4358691787339
 42
-0.0911724948852
  0
VERTEX
  8
MMBT2222A
 10
3.5860132836342
 20
-3.4215426137514
 42
-0.1118836502062
  0
VERTEX
  8
MMBT2222A
 10
3.5940430623132
 20
-3.4094287490464
 42
-0.1209671023324
  0
VERTEX
  8
MMBT2222A
 10
3.6081576098231
 20
-3.401484527539
 42
-0.0714526457578
  0
SEQEND
  0
POLYLINE
  8
MMBT2222A
 66
     1
 10
0.0
 20
0.0
 30
0.0
 70
     1
  0
VERTEX
  8
MMBT2222A
 10
3.6242188435632
 20
-3.4129443740464
 42
0.0602733930122
  0
VERTEX
  8
MMBT2222A
 10
3.6124375735133
 20
-3.4142259445616
 42
0.1192897023427
  0
VERTEX
  8
MMBT2222A
 10
3.6018067341882
 20
-3.4194629287339
 42
0.225829144534
  0
VERTEX
  8
MMBT2222A
 10
3.5944092732507
 20
-3.4358691787339
 42
0.2272931422955
  0
VERTEX
  8
MMBT2222A
 10
3.6018799763757
 20
-3.4522021865464
 42
0.1206046753197
  0
VERTEX
  8
MMBT2222A
 10
3.6126980334214
 20
-3.4574571070077
 42
0.0586771310173
  0
VERTEX
  8
MMBT2222A
 10
3.6246582966882
 20
-3.4587207412339
 42
0.0633962461497
  0
VERTEX
  8
MMBT2222A
 10
3.636167808863
 20
-3.4573996812367
 42
0.1191858816916
  0
VERTEX
  8
MMBT2222A
 10
3.6464844685632
 20
-3.4521289443589
 42
0.22727685936
  0
VERTEX
  8
MMBT2222A
 10
3.6539551716882
 20
-3.4358691787339
 42
0.2258325838835
  0
VERTEX
  8
MMBT2222A
 10
3.6465577107507
 20
-3.4194629287339
 42
0.1204891174352
  0
VERTEX
  8
MMBT2222A
 10
3.6359667534202
 20
-3.4142212243945
 42
0.0602735550367
  0
SEQEND
  0
POLYLINE
  8
MMBT2222A
 66
     1
 10
0.0
 20
0.0
 30
0.0
 70
     1
  0
VERTEX
  8
MMBT2222A
 10
3.5853272420007
 20
-3.4875781631089
 42
0.0
  0
VERTEX
  8
MMBT2222A
 10
3.6631104451257
 20
-3.4875781631089
 42
0.0
  0
VERTEX
  8
MMBT2222A
 10
3.6631104451257
 20
-3.4994433974839
 42
0.0
  0
VERTEX
  8
MMBT2222A
 10
3.6513184529382
 20
-3.4994433974839
 42
-0.0287686377951
  0
VERTEX
  8
MMBT2222A
 10
3.6571941681258
 20
-3.503070335109
 42
-0.0818164008473
  0
VERTEX
  8
MMBT2222A
 10
3.6622315388757
 20
-3.5077930068589
 42
-0.1537345968132
  0
VERTEX
  8
MMBT2222A
 10
3.6648682576257
 20
-3.5162891006089
 42
-0.1400330931389
  0
VERTEX
  8
MMBT2222A
 10
3.6606202107507
 20
-3.5298389052964
 42
0.0
  0
VERTEX
  8
MMBT2222A
 10
3.6483887654382
 20
-3.5252978896714
 42
0.1356478270924
  0
VERTEX
  8
MMBT2222A
 10
3.6512452107507
 20
-3.5156299209214
 42
0.1694856133254
  0
VERTEX
  8
MMBT2222A
 10
3.6486084920007
 20
-3.5078662490464
 42
0.1602599380789
  0
VERTEX
  8
MMBT2222A
 10
3.6414307576257
 20
-3.5029590224839
 42
0.0759205426051
  0
VERTEX
  8
MMBT2222A
 10
3.6260498982507
 20
-3.5007617568589
 42
0.0
  0
VERTEX
  8
MMBT2222A
 10
3.5853272420007
 20
-3.5007617568589
 42
0.0
  0
SEQEND
  0
POLYLINE
  8
MMBT2222A
 66
     1
 10
0.0
 20
0.0
 30
0.0
 70
     1
  0
VERTEX
  8
MMBT2222A
 10
2.5954080758743
 20
-5.1738434464608
 42
0.0
  0
VERTEX
  8
MMBT2222A
 10
2.7027811227493
 20
-5.1738434464608
 42
0.0
  0
VERTEX
  8
MMBT2222A
 10
2.7027811227493
 20
-5.2141266495858
 42
-0.0358247990394
  0
VERTEX
  8
MMBT2222A
 10
2.7021230416916
 20
-5.2241433119153
 42
-0.0678870705603
  0
VERTEX
  8
MMBT2222A
 10
2.6994852243118
 20
-5.2338287980233
 42
-0.1584045052753
  0
VERTEX
  8
MMBT2222A
 10
2.6894510446243
 20
-5.2454743058358
 42
-0.1441824646934
  0
VERTEX
  8
MMBT2222A
 10
2.6753153024368
 20
-5.2497223527108
 42
-0.1412797890349
  0
VERTEX
  8
MMBT2222A
 10
2.6623514352493
 20
-5.2459870011483
 42
-0.1424533797387
  0
VERTEX
  8
MMBT2222A
 10
2.6525369821243
 20
-5.2347077042733
 42
-0.0695636576633
  0
VERTEX
  8
MMBT2222A
 10
2.6488899841474
 20
-5.2429761479342
 42
-0.091162607577
  0
VERTEX
  8
MMBT2222A
 10
2.6427957711868
 20
-5.2496491105233
 42
-0.1691192597268
  0
VERTEX
  8
MMBT2222A
 10
2.6265360055618
 20
-5.2549225480233
 42
-0.1167972743772
  0
VERTEX
  8
MMBT2222A
 10
2.6124735055618
 20
-5.2516998917733
 42
-0.1188166582028
  0
VERTEX
  8
MMBT2222A
 10
2.6025125680618
 20
-5.2438629777108
 42
-0.0974668802111
  0
VERTEX
  8
MMBT2222A
 10
2.5971658883743
 20
-5.2320709855233
 42
-0.0592670442683
  0
VERTEX
  8
MMBT2222A
 10
2.5954080758743
 20
-5.2147858292733
 42
0.0
  0
SEQEND
  0
POLYLINE
  8
MMBT2222A
 66
     1
 10
0.0
 20
0.0
 30
0.0
 70
     1
  0
VERTEX
  8
MMBT2222A
 10
2.6576639352493
 20
-5.1880524308358
 42
0.0
  0
VERTEX
  8
MMBT2222A
 10
2.6576639352493
 20
-5.2112702042733
 42
0.0171134570387
  0
VERTEX
  8
MMBT2222A
 10
2.6578707395306
 20
-5.2180833137582
 42
0.0517692969323
  0
VERTEX
  8
MMBT2222A
 10
2.6589090524368
 20
-5.2248200089608
 42
0.1671739432279
  0
VERTEX
  8
MMBT2222A
 10
2.6642557321243
 20
-5.2329498917733
 42
0.163667733492
  0
VERTEX
  8
MMBT2222A
 10
2.6736307321243
 20
-5.2357330948983
 42
0.1449596665782
  0
VERTEX
  8
MMBT2222A
 10
2.6830057321243
 20
-5.2331696183358
 42
0.1863461450456
  0
VERTEX
  8
MMBT2222A
 10
2.6885721383743
 20
-5.2258453995858
 42
0.0550748026775
  0
VERTEX
  8
MMBT2222A
 10
2.6898608154599
 20
-5.2177278262524
 42
0.0171358740504
  0
VERTEX
  8
MMBT2222A
 10
2.6901102243118
 20
-5.2095123917733
 42
0.0
  0
VERTEX
  8
MMBT2222A
 10
2.6901102243118
 20
-5.1880524308358
 42
0.0
  0
SEQEND
  0
POLYLINE
  8
MMBT2222A
 66
     1
 10
0.0
 20
0.0
 30
0.0
 70
     1
  0
VERTEX
  8
MMBT2222A
 10
2.6080789743118
 20
-5.1880524308358
 42
0.0
  0
VERTEX
  8
MMBT2222A
 10
2.6080789743118
 20
-5.2147858292733
 42
0.0361178979867
  0
VERTEX
  8
MMBT2222A
 10
2.6085916696243
 20
-5.2244537980233
 42
0.0940676303018
  0
VERTEX
  8
MMBT2222A
 10
2.6115213571243
 20
-5.2326569230233
 42
0.1305190387805
  0
VERTEX
  8
MMBT2222A
 10
2.6174539743118
 20
-5.2380768448983
 42
0.125023161467
  0
VERTEX
  8
MMBT2222A
 10
2.6265360055618
 20
-5.2402008683358
 42
0.1569071335938
  0
VERTEX
  8
MMBT2222A
 10
2.6369363961868
 20
-5.2371246964608
 42
0.1705058064725
  0
VERTEX
  8
MMBT2222A
 10
2.6431619821243
 20
-5.2285553605233
 42
0.0554702203629
  0
VERTEX
  8
MMBT2222A
 10
2.6446563990834
 20
-5.2207860720258
 42
0.0235949257878
  0
VERTEX
  8
MMBT2222A
 10
2.6449930368118
 20
-5.2128815323983
 42
0.0
  0
VERTEX
  8
MMBT2222A
 10
2.6449930368118
 20
-5.1880524308358
 42
0.0
  0
SEQEND
  0
POLYLINE
  8
MMBT2222A
 66
     1
 10
0.0
 20
0.0
 30
0.0
 70
     1
  0
VERTEX
  8
MMBT2222A
 10
2.6050028024368
 20
-5.3235504777108
 42
-0.0848567980556
  0
VERTEX
  8
MMBT2222A
 10
2.5962137399368
 20
-5.3094147355233
 42
-0.0917287219654
  0
VERTEX
  8
MMBT2222A
 10
2.5936502633743
 20
-5.2949127823983
 42
-0.0677377996809
  0
VERTEX
  8
MMBT2222A
 10
2.5949370059274
 20
-5.2844847025956
 42
-0.1171166505015
  0
VERTEX
  8
MMBT2222A
 10
2.5998758493118
 20
-5.2752106339608
 42
-0.220080088721
  0
VERTEX
  8
MMBT2222A
 10
2.6159158883743
 20
-5.2683258683358
 42
-0.1275931721342
  0
VERTEX
  8
MMBT2222A
 10
2.6263162789993
 20
-5.2708893448983
 42
-0.1181730191337
  0
VERTEX
  8
MMBT2222A
 10
2.6339334664993
 20
-5.2777008683358
 42
-0.0808354251657
  0
VERTEX
  8
MMBT2222A
 10
2.6382547555618
 20
-5.2872223527108
 42
-0.0299471614234
  0
VERTEX
  8
MMBT2222A
 10
2.6402322946243
 20
-5.2989411027108
 42
0.0140104932637
  0
VERTEX
  8
MMBT2222A
 10
2.6419497068667
 20
-5.3108032993507
 42
0.0376922563341
  0
VERTEX
  8
MMBT2222A
 10
2.6447733102493
 20
-5.3224518448983
 42
0.0038008375891
  0
VERTEX
  8
MMBT2222A
 10
2.6482156930618
 20
-5.3225250870858
 42
0.0644973592157
  0
VERTEX
  8
MMBT2222A
 10
2.6542780151455
 20
-5.3218307061505
 42
0.1482411353272
  0
VERTEX
  8
MMBT2222A
 10
2.6595682321243
 20
-5.3187897355233
 42
0.1193098553757
  0
VERTEX
  8
MMBT2222A
 10
2.6631476355696
 20
-5.3116827847564
 42
0.0621324733157
  0
VERTEX
  8
MMBT2222A
 10
2.6640360055618
 20
-5.3037750870858
 42
0.0480259143267
  0
VERTEX
  8
MMBT2222A
 10
2.6634214000912
 20
-5.2966429802172
 42
0.1091436414117
  0
VERTEX
  8
MMBT2222A
 10
2.6607401071243
 20
-5.2900055558358
 42
0.1157634268199
  0
VERTEX
  8
MMBT2222A
 10
2.6555331670317
 20
-5.2857891536002
 42
0.0554617632767
  0
VERTEX
  8
MMBT2222A
 10
2.6492410836868
 20
-5.2834870011483
 42
0.0
  0
VERTEX
  8
MMBT2222A
 10
2.6509988961868
 20
-5.2705963761483
 42
-0.0458688235834
  0
VERTEX
  8
MMBT2222A
 10
2.6579973362079
 20
-5.272721350693
 42
-0.0699911207919
  0
VERTEX
  8
MMBT2222A
 10
2.6643289743118
 20
-5.2763825089608
 42
-0.082802520419
  0
VERTEX
  8
MMBT2222A
 10
2.6690761376268
 20
-5.2816475834842
 42
-0.0584501252699
  0
VERTEX
  8
MMBT2222A
 10
2.6721658883743
 20
-5.2880280167733
 42
-0.0871990007695
  0
VERTEX
  8
MMBT2222A
 10
2.6749490914993
 20
-5.3056793839608
 42
-0.0313581762822
  0
VERTEX
  8
MMBT2222A
 10
2.6744762576587
 20
-5.3138738641281
 42
-0.0577218276632
  0
VERTEX
  8
MMBT2222A
 10
2.6726053414993
 20
-5.3218659073983
 42
-0.0473305442863
  0
VERTEX
  8
MMBT2222A
 10
2.670228937026
 20
-5.3268258015539
 42
-0.0837722869362
  0
VERTEX
  8
MMBT2222A
 10
2.6666727243118
 20
-5.3310211808358
 42
-0.1213301996644
  0
VERTEX
  8
MMBT2222A
 10
2.6577371774368
 20
-5.3351227433358
 42
-0.0338083784329
  0
VERTEX
  8
MMBT2222A
 10
2.6516703803922
 20
-5.3356793214464
 42
-0.0095311443503
  0
VERTEX
  8
MMBT2222A
 10
2.6455789743118
 20
-5.3357819230233
 42
0.0
  0
VERTEX
  8
MMBT2222A
 10
2.6280008493118
 20
-5.3357819230233
 42
0.0053648493439
  0
VERTEX
  8
MMBT2222A
 10
2.616345143231
 20
-5.3358899351216
 42
0.0264070765298
  0
VERTEX
  8
MMBT2222A
 10
2.6047098336868
 20
-5.3365875870858
 42
0.0828596162076
  0
VERTEX
  8
MMBT2222A
 10
2.5954080758743
 20
-5.3399567277108
 42
0.0
  0
VERTEX
  8
MMBT2222A
 10
2.5954080758743
 20
-5.3261871964608
 42
-0.0892986638544
  0
SEQEND
  0
POLYLINE
  8
MMBT2222A
 66
     1
 10
0.0
 20
0.0
 30
0.0
 70
     1
  0
VERTEX
  8
MMBT2222A
 10
2.6344461618118
 20
-5.3224518448983
 42
-0.0420601405311
  0
VERTEX
  8
MMBT2222A
 10
2.6313669978223
 20
-5.3118214591135
 42
-0.0170712212829
  0
VERTEX
  8
MMBT2222A
 10
2.6294656930618
 20
-5.3009186417733
 42
0.0152268023759
  0
VERTEX
  8
MMBT2222A
 10
2.6284646811906
 20
-5.29509636254
 42
0.0468967176183
  0
VERTEX
  8
MMBT2222A
 10
2.6268289743118
 20
-5.2894196183358
 42
0.1517727835975
  0
VERTEX
  8
MMBT2222A
 10
2.6225076852493
 20
-5.2842194230233
 42
0.1496720755797
  0
VERTEX
  8
MMBT2222A
 10
2.6162820993118
 20
-5.2823883683358
 42
0.2245320045726
  0
VERTEX
  8
MMBT2222A
 10
2.6074930368118
 20
-5.2863434464608
 42
0.1166033163975
  0
VERTEX
  8
MMBT2222A
 10
2.604687708818
 20
-5.2918885676158
 42
0.0634001380333
  0
VERTEX
  8
MMBT2222A
 10
2.6039774118118
 20
-5.2980621964608
 42
0.1289837222213
  0
VERTEX
  8
MMBT2222A
 10
2.6072733102493
 20
-5.3116120011483
 42
0.1561049646995
  0
VERTEX
  8
MMBT2222A
 10
2.6164285836868
 20
-5.3203278214608
 42
0.0758471042267
  0
VERTEX
  8
MMBT2222A
 10
2.6229123357869
 20
-5.3220604769793
 42
0.0323832165812
  0
VERTEX
  8
MMBT2222A
 10
2.6296121774368
 20
-5.3224518448983
 42
0.0
  0
SEQEND
  0
POLYLINE
  8
MMBT2222A
 66
     1
 10
0.0
 20
0.0
 30
0.0
 70
     1
  0
VERTEX
  8
MMBT2222A
 10
2.6186258493118
 20
-5.3509430558358
 42
0.0
  0
VERTEX
  8
MMBT2222A
 10
2.6206766305618
 20
-5.3639801652108
 42
0.0770228301226
  0
VERTEX
  8
MMBT2222A
 10
2.6140949076096
 20
-5.3658818626377
 42
0.1080423838472
  0
VERTEX
  8
MMBT2222A
 10
2.6086649118118
 20
-5.3700592667733
 42
0.1091498304798
  0
VERTEX
  8
MMBT2222A
 10
2.6053581061563
 20
-5.3767285068653
 42
0.064184277816
  0
VERTEX
  8
MMBT2222A
 10
2.6044901071243
 20
-5.3841217667733
 42
0.0552660408595
  0
VERTEX
  8
MMBT2222A
 10
2.6051901595995
 20
-5.3911673841044
 42
0.1178193683658
  0
VERTEX
  8
MMBT2222A
 10
2.6081522164993
 20
-5.3975983292733
 42
0.0950764289009
  0
VERTEX
  8
MMBT2222A
 10
2.6120063694398
 20
-5.4007947150992
 42
0.1242695551651
  0
VERTEX
  8
MMBT2222A
 10
2.6168680368118
 20
-5.4019928605233
 42
0.268809476841
  0
VERTEX
  8
MMBT2222A
 10
2.6238992868118
 20
-5.3981110245858
 42
0.0495006915784
  0
VERTEX
  8
MMBT2222A
 10
2.6253782824854
 20
-5.3948729051447
 42
0.0236349859476
  0
VERTEX
  8
MMBT2222A
 10
2.6283670602493
 20
-5.3846344620858
 42
-0.0101005480578
  0
VERTEX
  8
MMBT2222A
 10
2.6311346489016
 20
-5.3744442525588
 42
-0.0332914110458
  0
VERTEX
  8
MMBT2222A
 10
2.6346658883743
 20
-5.3644928605233
 42
-0.1429089025765
  0
VERTEX
  8
MMBT2222A
 10
2.6420633493118
 20
-5.3559967667733
 42
-0.138456844836
  0
VERTEX
  8
MMBT2222A
 10
2.6525369821243
 20
-5.3531403214608
 42
-0.1249206567714
  0
VERTEX
  8
MMBT2222A
 10
2.6621317086868
 20
-5.3554840714608
 42
-0.1156591073838
  0
VERTEX
  8
MMBT2222A
 10
2.6695291696243
 20
-5.3620026261483
 42
-0.0852574581979
  0
VERTEX
  8
MMBT2222A
 10
2.6733377633743
 20
-5.3703522355233
 42
-0.0735308182308
  0
VERTEX
  8
MMBT2222A
 10
2.6749490914993
 20
-5.3817780167733
 42
-0.0910800084285
  0
VERTEX
  8
MMBT2222A
 10
2.6723123727493
 20
-5.3978180558358
 42
-0.0564171887867
  0
VERTEX
  8
MMBT2222A
 10
2.6694688266977
 20
-5.4034667336212
 42
-0.0890509057691
  0
VERTEX
  8
MMBT2222A
 10
2.6651346383743
 20
-5.4080719620858
 42
-0.0732625622685
  0
VERTEX
  8
MMBT2222A
 10
2.6593926911851
 20
-5.4110405651336
 42
-0.0444001352265
  0
VERTEX
  8
MMBT2222A
 10
2.6531229196243
 20
-5.4126129777108
 42
0.0
  0
VERTEX
  8
MMBT2222A
 10
2.6513651071243
 20
-5.3997223527108
 42
0.1973110649268
  0
VERTEX
  8
MMBT2222A
 10
2.6607401071243
 20
-5.3945953995858
 42
0.109657339638
  0
VERTEX
  8
MMBT2222A
 10
2.6634251974937
 20
-5.3889468811265
 42
0.0604533481141
  0
VERTEX
  8
MMBT2222A
 10
2.6641092477493
 20
-5.3827301652108
 42
0.0443279449627
  0
VERTEX
  8
MMBT2222A
 10
2.6635803315241
 20
-5.376022954098
 42
0.116732551981
  0
VERTEX
  8
MMBT2222A
 10
2.6611063180618
 20
-5.3697662980233
 42
0.0946803745109
  0
VERTEX
  8
MMBT2222A
 10
2.6580594595427
 20
-5.3669762896981
 42
0.1366656801654
  0
VERTEX
  8
MMBT2222A
 10
2.6540750680618
 20
-5.3658844620858
 42
0.1729206985086
  0
VERTEX
  8
MMBT2222A
 10
2.6494608102493
 20
-5.3674957902108
 42
0.1327345442981
  0
VERTEX
  8
MMBT2222A
 10
2.6459451852493
 20
-5.3725495011483
 42
0.011614311927
  0
VERTEX
  8
MMBT2222A
 10
2.6425760446243
 20
-5.3841950089608
 42
-0.0080612508767
  0
VERTEX
  8
MMBT2222A
 10
2.6397977212868
 20
-5.3940302740947
 42
-0.0268644877651
  0
VERTEX
  8
MMBT2222A
 10
2.6364237008743
 20
-5.4036774308358
 42
-0.1449777944689
  0
VERTEX
  8
MMBT2222A
 10
2.6295389352493
 20
-5.4123932511483
 42
-0.154291971657
  0
VERTEX
  8
MMBT2222A
 10
2.6182596383743
 20
-5.4155426652108
 42
-0.1503844998692
  0
VERTEX
  8
MMBT2222A
 10
2.6058084664993
 20
-5.4116608292733
 42
-0.1456747716048
  0
VERTEX
  8
MMBT2222A
 10
2.5967996774368
 20
-5.4006012589608
 42
-0.1031632166366
  0
VERTEX
  8
MMBT2222A
 10
2.5936502633743
 20
-5.3841950089608
 42
-0.0570913654074
  0
VERTEX
  8
MMBT2222A
 10
2.5949015304035
 20
-5.3721061601939
 42
-0.109839039348
  0
VERTEX
  8
MMBT2222A
 10
2.5999490914993
 20
-5.3610504777108
 42
-0.1077825924592
  0
VERTEX
  8
MMBT2222A
 10
2.6083489442121
 20
-5.3542625330383
 42
-0.0743296324491
  0
SEQEND
  0
POLYLINE
  8
MMBT2222A
 66
     1
 10
0.0
 20
0.0
 30
0.0
 70
     1
  0
VERTEX
  8
MMBT2222A
 10
2.6204569039993
 20
-5.4844635636483
 42
0.0
  0
VERTEX
  8
MMBT2222A
 10
2.6187723336868
 20
-5.4980866105233
 42
-0.0744951226198
  0
VERTEX
  8
MMBT2222A
 10
2.6084910792449
 20
-5.4936945367482
 42
-0.0916625925887
  0
VERTEX
  8
MMBT2222A
 10
2.6002420602493
 20
-5.4861481339608
 42
-0.0958072865576
  0
VERTEX
  8
MMBT2222A
 10
2.5951085491533
 20
-5.4755593497046
 42
-0.0670142962809
  0
VERTEX
  8
MMBT2222A
 10
2.5936502633743
 20
-5.4638825089608
 42
-0.0873659590534
  0
VERTEX
  8
MMBT2222A
 10
2.5960244291882
 20
-5.4492263279902
 42
-0.1165827064356
  0
VERTEX
  8
MMBT2222A
 10
2.6041238961868
 20
-5.4367828995858
 42
-0.1170137955897
  0
VERTEX
  8
MMBT2222A
 10
2.6179181255359
 20
-5.42894567005
 42
-0.0737457503298
  0
VERTEX
  8
MMBT2222A
 10
2.6336404977493
 20
-5.4268219620858
 42
-0.0721871771471
  0
VERTEX
  8
MMBT2222A
 10
2.6498416309211
 20
-5.4289613802387
 42
-0.1168609454388
  0
VERTEX
  8
MMBT2222A
 10
2.6641092477493
 20
-5.4369293839608
 42
-0.1115030288521
  0
VERTEX
  8
MMBT2222A
 10
2.6723719500473
 20
-5.4488645108593
 42
-0.0959907381905
  0
VERTEX
  8
MMBT2222A
 10
2.6749490914993
 20
-5.4631500870858
 42
-0.0971073902144
  0
VERTEX
  8
MMBT2222A
 10
2.6724070859872
 20
-5.4770475821211
 42
-0.1105791978688
  0
VERTEX
  8
MMBT2222A
 10
2.6643289743118
 20
-5.4886383683358
 42
-0.1169080505539
  0
VERTEX
  8
MMBT2222A
 10
2.6503318269241
 20
-5.4964359822226
 42
-0.0719320890453
  0
VERTEX
  8
MMBT2222A
 10
2.6344461618118
 20
-5.4985260636483
 42
-0.0066807442817
  0
VERTEX
  8
MMBT2222A
 10
2.6309305368118
 20
-5.4984528214608
 42
0.0
  0
VERTEX
  8
MMBT2222A
 10
2.6309305368118
 20
-5.4404450089608
 42
0.0662267765334
  0
VERTEX
  8
MMBT2222A
 10
2.6204704243228
 20
-5.4423226501408
 42
0.1112847549224
  0
VERTEX
  8
MMBT2222A
 10
2.6113016305618
 20
-5.4476959855233
 42
0.213485807897
  0
VERTEX
  8
MMBT2222A
 10
2.6044901071243
 20
-5.4639557511483
 42
0.1644570590433
  0
VERTEX
  8
MMBT2222A
 10
2.6082987008743
 20
-5.4763336808358
 42
0.0923477561377
  0
VERTEX
  8
MMBT2222A
 10
2.6137862907665
 20
-5.4812832244425
 42
0.0543524083443
  0
SEQEND
  0
POLYLINE
  8
MMBT2222A
 66
     1
 10
0.0
 20
0.0
 30
0.0
 70
     1
  0
VERTEX
  8
MMBT2222A
 10
2.6417703805618
 20
-5.4411774308358
 42
0.0
  0
VERTEX
  8
MMBT2222A
 10
2.6417703805618
 20
-5.4846100480233
 42
0.0503626359992
  0
VERTEX
  8
MMBT2222A
 10
2.6494968966309
 20
-5.4832007199967
 42
0.1005734561429
  0
VERTEX
  8
MMBT2222A
 10
2.6564920602493
 20
-5.4796295792733
 42
0.2353231982218
  0
VERTEX
  8
MMBT2222A
 10
2.6641092477493
 20
-5.4632965714608
 42
0.2034874291997
  0
VERTEX
  8
MMBT2222A
 10
2.6580301461868
 20
-5.4479889542733
 42
0.104552746485
  0
VERTEX
  8
MMBT2222A
 10
2.6505413399003
 20
-5.4430528864372
 42
0.0787524247924
  0
SEQEND
  0
POLYLINE
  8
MMBT2222A
 66
     1
 10
0.0
 20
0.0
 30
0.0
 70
     1
  0
VERTEX
  8
MMBT2222A
 10
4.5848260694872
 20
-5.1221841530811
 42
0.0
  0
VERTEX
  8
MMBT2222A
 10
4.6921991163622
 20
-5.1221841530811
 42
0.0
  0
VERTEX
  8
MMBT2222A
 10
4.6921991163622
 20
-5.1998208718311
 42
0.0
  0
VERTEX
  8
MMBT2222A
 10
4.6795282179247
 20
-5.1998208718311
 42
0.0
  0
VERTEX
  8
MMBT2222A
 10
4.6795282179247
 20
-5.1363931374561
 42
0.0
  0
VERTEX
  8
MMBT2222A
 10
4.6466424757372
 20
-5.1363931374561
 42
0.0
  0
VERTEX
  8
MMBT2222A
 10
4.6466424757372
 20
-5.1957925515186
 42
0.0
  0
VERTEX
  8
MMBT2222A
 10
4.6340448194872
 20
-5.1957925515186
 42
0.0
  0
VERTEX
  8
MMBT2222A
 10
4.6340448194872
 20
-5.1363931374561
 42
0.0
  0
VERTEX
  8
MMBT2222A
 10
4.5974969679247
 20
-5.1363931374561
 42
0.0
  0
VERTEX
  8
MMBT2222A
 10
4.5974969679247
 20
-5.2023111062061
 42
0.0
  0
VERTEX
  8
MMBT2222A
 10
4.5848260694872
 20
-5.2023111062061
 42
0.0
  0
SEQEND
  0
POLYLINE
  8
MMBT2222A
 66
     1
 10
0.0
 20
0.0
 30
0.0
 70
     1
  0
VERTEX
  8
MMBT2222A
 10
4.5848260694872
 20
-5.2202554421436
 42
0.0
  0
VERTEX
  8
MMBT2222A
 10
4.6626092726122
 20
-5.2202554421436
 42
0.0
  0
VERTEX
  8
MMBT2222A
 10
4.6626092726122
 20
-5.2320474343311
 42
0.0
  0
VERTEX
  8
MMBT2222A
 10
4.6516961866747
 20
-5.2320474343311
 42
-0.1237865024167
  0
VERTEX
  8
MMBT2222A
 10
4.6608514601122
 20
-5.2417886452686
 42
-0.1337135129245
  0
VERTEX
  8
MMBT2222A
 10
4.6643670851122
 20
-5.2556314187061
 42
-0.0566030402157
  0
VERTEX
  8
MMBT2222A
 10
4.6635976915429
 20
-5.2629595328318
 42
-0.0883767838935
  0
VERTEX
  8
MMBT2222A
 10
4.6607782179247
 20
-5.2697671608936
 42
-0.1710428142704
  0
VERTEX
  8
MMBT2222A
 10
4.6507440382372
 20
-5.2776040749561
 42
-0.1111336983761
  0
VERTEX
  8
MMBT2222A
 10
4.6607260772019
 20
-5.2878178806854
 42
-0.1364967409105
  0
VERTEX
  8
MMBT2222A
 10
4.6643670851122
 20
-5.3016275124561
 42
-0.0789617455113
  0
VERTEX
  8
MMBT2222A
 10
4.662986623089
 20
-5.3111935688693
 42
-0.1237390524611
  0
VERTEX
  8
MMBT2222A
 10
4.6579217726122
 20
-5.3194253640186
 42
-0.1292020393114
  0
VERTEX
  8
MMBT2222A
 10
4.6486679492861
 20
-5.3244282756168
 42
-0.0650508715923
  0
VERTEX
  8
MMBT2222A
 10
4.6382196241747
 20
-5.3256509499561
 42
0.0
  0
VERTEX
  8
MMBT2222A
 10
4.5848260694872
 20
-5.3256509499561
 42
0.0
  0
VERTEX
  8
MMBT2222A
 10
4.5848260694872
 20
-5.3125405983936
 42
0.0
  0
VERTEX
  8
MMBT2222A
 10
4.6338250929247
 20
-5.3125405983936
 42
0.0217149388576
  0
VERTEX
  8
MMBT2222A
 10
4.6395522573902
 20
-5.312319704471
 42
0.0644283992845
  0
VERTEX
  8
MMBT2222A
 10
4.6451776319872
 20
-5.3112222390186
 42
0.1732075054459
  0
VERTEX
  8
MMBT2222A
 10
4.6508172804247
 20
-5.3066079812061
 42
0.143602475522
  0
VERTEX
  8
MMBT2222A
 10
4.6529413038622
 20
-5.2986978249561
 42
0.2087776682619
  0
VERTEX
  8
MMBT2222A
 10
4.6474481397997
 20
-5.2850747780811
 42
0.134174182763
  0
VERTEX
  8
MMBT2222A
 10
4.6392533049566
 20
-5.2806892170433
 42
0.0625983076731
  0
VERTEX
  8
MMBT2222A
 10
4.6300164991747
 20
-5.2796548562061
 42
0.0
  0
VERTEX
  8
MMBT2222A
 10
4.5848260694872
 20
-5.2796548562061
 42
0.0
  0
VERTEX
  8
MMBT2222A
 10
4.5848260694872
 20
-5.2664712624561
 42
0.0
  0
VERTEX
  8
MMBT2222A
 10
4.6353631788622
 20
-5.2664712624561
 42
0.0498575167131
  0
VERTEX
  8
MMBT2222A
 10
4.6421987642566
 20
-5.2658572355983
 42
0.1071312157104
  0
VERTEX
  8
MMBT2222A
 10
4.6485467726122
 20
-5.2632486062061
 42
0.1509887115456
  0
VERTEX
  8
MMBT2222A
 10
4.6520334398382
 20
-5.2585124165364
 42
0.087074476473
  0
VERTEX
  8
MMBT2222A
 10
4.6529413038622
 20
-5.2527017312061
 42
0.1415206049183
  0
VERTEX
  8
MMBT2222A
 10
4.6500116163622
 20
-5.2423745827686
 42
0.1685840439044
  0
VERTEX
  8
MMBT2222A
 10
4.6414422804247
 20
-5.2355630593311
 42
0.0611783772855
  0
VERTEX
  8
MMBT2222A
 10
4.6333997588678
 20
-5.2338322885558
 42
0.0264962736179
  0
VERTEX
  8
MMBT2222A
 10
4.6251825147997
 20
-5.2334390358936
 42
0.0
  0
VERTEX
  8
MMBT2222A
 10
4.5848260694872
 20
-5.2334390358936
 42
0.0
  0
SEQEND
  0
POLYLINE
  8
MMBT2222A
 66
     1
 10
0.0
 20
0.0
 30
0.0
 70
     1
  0
VERTEX
  8
MMBT2222A
 10
4.6770379835497
 20
-5.3452798562061
 42
0.0
  0
VERTEX
  8
MMBT2222A
 10
4.6921991163622
 20
-5.3452798562061
 42
0.0
  0
VERTEX
  8
MMBT2222A
 10
4.6921991163622
 20
-5.3584634499561
 42
0.0
  0
VERTEX
  8
MMBT2222A
 10
4.6770379835497
 20
-5.3584634499561
 42
0.0
  0
SEQEND
  0
POLYLINE
  8
MMBT2222A
 66
     1
 10
0.0
 20
0.0
 30
0.0
 70
     1
  0
VERTEX
  8
MMBT2222A
 10
4.5848260694872
 20
-5.3452798562061
 42
0.0
  0
VERTEX
  8
MMBT2222A
 10
4.6626092726122
 20
-5.3452798562061
 42
0.0
  0
VERTEX
  8
MMBT2222A
 10
4.6626092726122
 20
-5.3584634499561
 42
0.0
  0
VERTEX
  8
MMBT2222A
 10
4.5848260694872
 20
-5.3584634499561
 42
0.0
  0
SEQEND
  0
POLYLINE
  8
MMBT2222A
 66
     1
 10
0.0
 20
0.0
 30
0.0
 70
     1
  0
VERTEX
  8
MMBT2222A
 10
4.5966180616747
 20
-5.4073159890186
 42
0.0
  0
VERTEX
  8
MMBT2222A
 10
4.5849725538622
 20
-5.4092202858936
 42
-0.0509781648809
  0
VERTEX
  8
MMBT2222A
 10
4.5838006788622
 20
-5.3992593483936
 42
-0.0426373349095
  0
VERTEX
  8
MMBT2222A
 10
4.5842428990378
 20
-5.3935515994898
 42
-0.0863650760854
  0
VERTEX
  8
MMBT2222A
 10
4.5860711866747
 20
-5.3881265358936
 42
-0.1633617775928
  0
VERTEX
  8
MMBT2222A
 10
4.5920038038622
 20
-5.3825601296436
 42
-0.059343736057
  0
VERTEX
  8
MMBT2222A
 10
4.5958255431278
 20
-5.3815967257951
 42
-0.0343908651145
  0
VERTEX
  8
MMBT2222A
 10
4.6076043897997
 20
-5.3809488015186
 42
0.0
  0
VERTEX
  8
MMBT2222A
 10
4.6523553663622
 20
-5.3809488015186
 42
0.0
  0
VERTEX
  8
MMBT2222A
 10
4.6523553663622
 20
-5.3712808327686
 42
0.0
  0
VERTEX
  8
MMBT2222A
 10
4.6626092726122
 20
-5.3712808327686
 42
0.0
  0
VERTEX
  8
MMBT2222A
 10
4.6626092726122
 20
-5.3809488015186
 42
0.0
  0
VERTEX
  8
MMBT2222A
 10
4.6818719679247
 20
-5.3809488015186
 42
0.0
  0
VERTEX
  8
MMBT2222A
 10
4.6897821241747
 20
-5.3940591530811
 42
0.0
  0
VERTEX
  8
MMBT2222A
 10
4.6626092726122
 20
-5.3940591530811
 42
0.0
  0
VERTEX
  8
MMBT2222A
 10
4.6626092726122
 20
-5.4073159890186
 42
0.0
  0
VERTEX
  8
MMBT2222A
 10
4.6523553663622
 20
-5.4073159890186
 42
0.0
  0
VERTEX
  8
MMBT2222A
 10
4.6523553663622
 20
-5.3940591530811
 42
0.0
  0
VERTEX
  8
MMBT2222A
 10
4.6068719679247
 20
-5.3940591530811
 42
0.0142820439242
  0
VERTEX
  8
MMBT2222A
 10
4.6032248585242
 20
-5.394150887144
 42
0.0660366411484
  0
VERTEX
  8
MMBT2222A
 10
4.5996209913622
 20
-5.3947183327686
 42
0.1518727572144
  0
VERTEX
  8
MMBT2222A
 10
4.5970575147997
 20
-5.3969888405811
 42
0.127831324342
  0
VERTEX
  8
MMBT2222A
 10
4.5961053663622
 20
-5.4015298562061
 42
0.0328761808587
  0
SEQEND
  0
POLYLINE
  8
MMBT2222A
 66
     1
 10
0.0
 20
0.0
 30
0.0
 70
     1
  0
VERTEX
  8
MMBT2222A
 10
4.5966180616747
 20
-5.4489907937061
 42
0.0
  0
VERTEX
  8
MMBT2222A
 10
4.5849725538622
 20
-5.4508950905811
 42
-0.0509781648809
  0
VERTEX
  8
MMBT2222A
 10
4.5838006788622
 20
-5.4409341530811
 42
-0.0426373349095
  0
VERTEX
  8
MMBT2222A
 10
4.5842428990378
 20
-5.4352264041773
 42
-0.0863650760854
  0
VERTEX
  8
MMBT2222A
 10
4.5860711866747
 20
-5.4298013405811
 42
-0.1633617775928
  0
VERTEX
  8
MMBT2222A
 10
4.5920038038622
 20
-5.4242349343311
 42
-0.059343736057
  0
VERTEX
  8
MMBT2222A
 10
4.5958255431278
 20
-5.4232715304826
 42
-0.0343908651145
  0
VERTEX
  8
MMBT2222A
 10
4.6076043897997
 20
-5.4226236062061
 42
0.0
  0
VERTEX
  8
MMBT2222A
 10
4.6523553663622
 20
-5.4226236062061
 42
0.0
  0
VERTEX
  8
MMBT2222A
 10
4.6523553663622
 20
-5.4129556374561
 42
0.0
  0
VERTEX
  8
MMBT2222A
 10
4.6626092726122
 20
-5.4129556374561
 42
0.0
  0
VERTEX
  8
MMBT2222A
 10
4.6626092726122
 20
-5.4226236062061
 42
0.0
  0
VERTEX
  8
MMBT2222A
 10
4.6818719679247
 20
-5.4226236062061
 42
0.0
  0
VERTEX
  8
MMBT2222A
 10
4.6897821241747
 20
-5.4357339577686
 42
0.0
  0
VERTEX
  8
MMBT2222A
 10
4.6626092726122
 20
-5.4357339577686
 42
0.0
  0
VERTEX
  8
MMBT2222A
 10
4.6626092726122
 20
-5.4489907937061
 42
0.0
  0
VERTEX
  8
MMBT2222A
 10
4.6523553663622
 20
-5.4489907937061
 42
0.0
  0
VERTEX
  8
MMBT2222A
 10
4.6523553663622
 20
-5.4357339577686
 42
0.0
  0
VERTEX
  8
MMBT2222A
 10
4.6068719679247
 20
-5.4357339577686
 42
0.0142820439242
  0
VERTEX
  8
MMBT2222A
 10
4.6032248585242
 20
-5.4358256918315
 42
0.0660366411484
  0
VERTEX
  8
MMBT2222A
 10
4.5996209913622
 20
-5.4363931374561
 42
0.1518727572144
  0
VERTEX
  8
MMBT2222A
 10
4.5970575147997
 20
-5.4386636452686
 42
0.127831324342
  0
VERTEX
  8
MMBT2222A
 10
4.5961053663622
 20
-5.4432046608936
 42
0.0328761808587
  0
SEQEND
  0
POLYLINE
  8
MMBT2222A
 66
     1
 10
0.0
 20
0.0
 30
0.0
 70
     1
  0
VERTEX
  8
MMBT2222A
 10
4.6098748976122
 20
-5.5151284890186
 42
0.0
  0
VERTEX
  8
MMBT2222A
 10
4.6081903272997
 20
-5.5287515358936
 42
-0.0744951226198
  0
VERTEX
  8
MMBT2222A
 10
4.5979090728578
 20
-5.5243594621185
 42
-0.0916625925887
  0
VERTEX
  8
MMBT2222A
 10
4.5896600538622
 20
-5.5168130593311
 42
-0.0958072865576
  0
VERTEX
  8
MMBT2222A
 10
4.5845265427662
 20
-5.506224275075
 42
-0.0670142962809
  0
VERTEX
  8
MMBT2222A
 10
4.5830682569872
 20
-5.4945474343311
 42
-0.0873659590534
  0
VERTEX
  8
MMBT2222A
 10
4.5854424228011
 20
-5.4798912533605
 42
-0.1165827064356
  0
VERTEX
  8
MMBT2222A
 10
4.5935418897997
 20
-5.4674478249561
 42
-0.1170137955897
  0
VERTEX
  8
MMBT2222A
 10
4.6073361191488
 20
-5.4596105954203
 42
-0.0737457503298
  0
VERTEX
  8
MMBT2222A
 10
4.6230584913622
 20
-5.4574868874561
 42
-0.0721871771471
  0
VERTEX
  8
MMBT2222A
 10
4.639259624534
 20
-5.459626305609
 42
-0.1168609454388
  0
VERTEX
  8
MMBT2222A
 10
4.6535272413622
 20
-5.4675943093311
 42
-0.1115030288521
  0
VERTEX
  8
MMBT2222A
 10
4.6617899436602
 20
-5.4795294362296
 42
-0.0959907381905
  0
VERTEX
  8
MMBT2222A
 10
4.6643670851122
 20
-5.4938150124561
 42
-0.0971073902144
  0
VERTEX
  8
MMBT2222A
 10
4.6618250796001
 20
-5.5077125074914
 42
-0.1105791978688
  0
VERTEX
  8
MMBT2222A
 10
4.6537469679247
 20
-5.5193032937061
 42
-0.1169080505539
  0
VERTEX
  8
MMBT2222A
 10
4.639749820537
 20
-5.5271009075929
 42
-0.0719320890453
  0
VERTEX
  8
MMBT2222A
 10
4.6238641554247
 20
-5.5291909890186
 42
-0.0066807442817
  0
VERTEX
  8
MMBT2222A
 10
4.6203485304247
 20
-5.5291177468311
 42
0.0
  0
VERTEX
  8
MMBT2222A
 10
4.6203485304247
 20
-5.4711099343311
 42
0.0662267765334
  0
VERTEX
  8
MMBT2222A
 10
4.6098884179357
 20
-5.4729875755111
 42
0.1112847549224
  0
VERTEX
  8
MMBT2222A
 10
4.6007196241747
 20
-5.4783609108936
 42
0.213485807897
  0
VERTEX
  8
MMBT2222A
 10
4.5939081007372
 20
-5.4946206765186
 42
0.1644570590433
  0
VERTEX
  8
MMBT2222A
 10
4.5977166944872
 20
-5.5069986062061
 42
0.0923477561377
  0
VERTEX
  8
MMBT2222A
 10
4.6032042843794
 20
-5.5119481498128
 42
0.0543524083443
  0
SEQEND
  0
POLYLINE
  8
MMBT2222A
 66
     1
 10
0.0
 20
0.0
 30
0.0
 70
     1
  0
VERTEX
  8
MMBT2222A
 10
4.6311883741747
 20
-5.4718423562061
 42
0.0
  0
VERTEX
  8
MMBT2222A
 10
4.6311883741747
 20
-5.5152749733936
 42
0.0503626359992
  0
VERTEX
  8
MMBT2222A
 10
4.6389148902438
 20
-5.513865645367
 42
0.1005734561429
  0
VERTEX
  8
MMBT2222A
 10
4.6459100538622
 20
-5.5102945046436
 42
0.2353231982218
  0
VERTEX
  8
MMBT2222A
 10
4.6535272413622
 20
-5.4939614968311
 42
0.2034874291997
  0
VERTEX
  8
MMBT2222A
 10
4.6474481397997
 20
-5.4786538796436
 42
0.104552746485
  0
VERTEX
  8
MMBT2222A
 10
4.6399593335132
 20
-5.4737178118075
 42
0.0787524247924
  0
SEQEND
  0
POLYLINE
  8
MMBT2222A
 66
     1
 10
0.0
 20
0.0
 30
0.0
 70
     1
  0
VERTEX
  8
MMBT2222A
 10
4.5848260694872
 20
-5.5451577858936
 42
0.0
  0
VERTEX
  8
MMBT2222A
 10
4.6626092726122
 20
-5.5451577858936
 42
0.0
  0
VERTEX
  8
MMBT2222A
 10
4.6626092726122
 20
-5.5570230202686
 42
0.0
  0
VERTEX
  8
MMBT2222A
 10
4.6508172804247
 20
-5.5570230202686
 42
-0.0287686377951
  0
VERTEX
  8
MMBT2222A
 10
4.6566929956122
 20
-5.5606499578938
 42
-0.0818164008473
  0
VERTEX
  8
MMBT2222A
 10
4.6617303663622
 20
-5.5653726296436
 42
-0.1537345968132
  0
VERTEX
  8
MMBT2222A
 10
4.6643670851122
 20
-5.5738687233936
 42
-0.1400330931389
  0
VERTEX
  8
MMBT2222A
 10
4.6601190382372
 20
-5.5874185280811
 42
0.0
  0
VERTEX
  8
MMBT2222A
 10
4.6478875929247
 20
-5.5828775124561
 42
0.1356478270924
  0
VERTEX
  8
MMBT2222A
 10
4.6507440382372
 20
-5.5732095437061
 42
0.1694856133254
  0
VERTEX
  8
MMBT2222A
 10
4.6481073194872
 20
-5.5654458718311
 42
0.1602599380789
  0
VERTEX
  8
MMBT2222A
 10
4.6409295851122
 20
-5.5605386452686
 42
0.0759205426051
  0
VERTEX
  8
MMBT2222A
 10
4.6255487257372
 20
-5.5583413796436
 42
0.0
  0
VERTEX
  8
MMBT2222A
 10
4.5848260694872
 20
-5.5583413796436
 42
0.0
  0
SEQEND
  0
TEXT
  8
MMBT2222A
 10
2.9037034504973
 20
-4.9249361401143
 30
0.0
 40
0.2
  1
MMBT2222A
 72
     0
 73
     1
  0
POLYLINE
  8
MMBT2222A
 66
     1
 10
0.0
 20
0.0
 30
0.0
 70
     0
  0
VERTEX
  8
MMBT2222A
 10
1.65
 20
-6.9
 42
0.0
  0
VERTEX
  8
MMBT2222A
 10
1.0
 20
-6.9
 42
0.0
  0
VERTEX
  8
MMBT2222A
 10
1.0
 20
-6.7
 42
0.0
  0
VERTEX
  8
MMBT2222A
 10
1.0
 20
-6.9
 42
0.0
  0
VERTEX
  8
MMBT2222A
 10
0.35
 20
-6.9
 42
0.0
  0
VERTEX
  8
MMBT2222A
 10
0.35
 20
-6.2
 42
0.0
  0
VERTEX
  8
MMBT2222A
 10
1.65
 20
-6.2
 42
0.0
  0
VERTEX
  8
MMBT2222A
 10
1.65
 20
-6.9
 42
0.0
  0
VERTEX
  8
MMBT2222A
 10
1.65
 20
-6.2
 42
0.0
  0
VERTEX
  8
MMBT2222A
 10
1.0
 20
-6.55
 42
0.0
  0
VERTEX
  8
MMBT2222A
 10
1.0
 20
-4.65
 42
0.0
  0
VERTEX
  8
MMBT2222A
 10
1.65
 20
-5.0
 42
0.0
  0
VERTEX
  8
MMBT2222A
 10
0.35
 20
-5.0
 42
0.0
  0
VERTEX
  8
MMBT2222A
 10
0.35
 20
-4.3
 42
0.0
  0
VERTEX
  8
MMBT2222A
 10
1.0
 20
-4.3
 42
0.0
  0
VERTEX
  8
MMBT2222A
 10
1.0
 20
-4.5
 42
0.0
  0
VERTEX
  8
MMBT2222A
 10
1.0
 20
-4.3
 42
0.0
  0
VERTEX
  8
MMBT2222A
 10
1.65
 20
-4.3
 42
0.0
  0
VERTEX
  8
MMBT2222A
 10
1.65
 20
-5.0
 42
0.0
  0
SEQEND
  0
POLYLINE
  8
MMBT2222A
 66
     1
 10
0.0
 20
0.0
 30
0.0
 70
     1
  0
VERTEX
  8
MMBT2222A
 10
0.8929173752493
 20
-5.1409370071296
 42
0.0
  0
VERTEX
  8
MMBT2222A
 10
0.9443333908743
 20
-5.1409370071296
 42
0.0
  0
VERTEX
  8
MMBT2222A
 10
0.9443333908743
 20
-5.0477729446296
 42
0.0
  0
VERTEX
  8
MMBT2222A
 10
0.9685033127493
 20
-5.0477729446296
 42
0.0
  0
VERTEX
  8
MMBT2222A
 10
1.1076634689993
 20
-5.1457709915046
 42
0.0
  0
VERTEX
  8
MMBT2222A
 10
1.1076634689993
 20
-5.1673041946296
 42
0.0
  0
VERTEX
  8
MMBT2222A
 10
0.9685033127493
 20
-5.1673041946296
 42
0.0
  0
VERTEX
  8
MMBT2222A
 10
0.9685033127493
 20
-5.1963081008796
 42
0.0
  0
VERTEX
  8
MMBT2222A
 10
0.9443333908743
 20
-5.1963081008796
 42
0.0
  0
VERTEX
  8
MMBT2222A
 10
0.9443333908743
 20
-5.1673041946296
 42
0.0
  0
VERTEX
  8
MMBT2222A
 10
0.8929173752493
 20
-5.1673041946296
 42
0.0
  0
SEQEND
  0
POLYLINE
  8
MMBT2222A
 66
     1
 10
0.0
 20
0.0
 30
0.0
 70
     1
  0
VERTEX
  8
MMBT2222A
 10
0.9685033127493
 20
-5.1409370071296
 42
0.0
  0
VERTEX
  8
MMBT2222A
 10
1.0653294846243
 20
-5.1409370071296
 42
0.0
  0
VERTEX
  8
MMBT2222A
 10
0.9685033127493
 20
-5.0737006790046
 42
0.0
  0
SEQEND
  0
POLYLINE
  8
MMBT2222A
 66
     1
 10
0.0
 20
0.0
 30
0.0
 70
     1
  0
VERTEX
  8
MMBT2222A
 10
1.0795384689993
 20
-5.2250190383796
 42
0.0
  0
VERTEX
  8
MMBT2222A
 10
1.1048802658743
 20
-5.2250190383796
 42
0.0
  0
VERTEX
  8
MMBT2222A
 10
1.1048802658743
 20
-5.3640327102546
 42
0.0
  0
VERTEX
  8
MMBT2222A
 10
1.0843724533743
 20
-5.3640327102546
 42
0.0376176163222
  0
VERTEX
  8
MMBT2222A
 10
1.0565797591489
 20
-5.3419460567861
 42
0.0231193310912
  0
VERTEX
  8
MMBT2222A
 10
1.0263646408743
 20
-5.3233100540046
 42
0.0568641786024
  0
VERTEX
  8
MMBT2222A
 10
0.9519505783743
 20
-5.2922553665046
 42
0.0541672488757
  0
VERTEX
  8
MMBT2222A
 10
0.8929173752493
 20
-5.2821479446296
 42
0.0
  0
VERTEX
  8
MMBT2222A
 10
0.8929173752493
 20
-5.2550483352546
 42
-0.0382123475372
  0
VERTEX
  8
MMBT2222A
 10
0.9238218519
 20
-5.2582508394288
 42
-0.0216244443347
  0
VERTEX
  8
MMBT2222A
 10
0.9541478439993
 20
-5.2650092727546
 42
-0.057851028196
  0
VERTEX
  8
MMBT2222A
 10
1.0232884689993
 20
-5.2922553665046
 42
-0.0238769956041
  0
VERTEX
  8
MMBT2222A
 10
1.0524892781004
 20
-5.3096300716987
 42
-0.0332752926845
  0
VERTEX
  8
MMBT2222A
 10
1.0795384689993
 20
-5.3301948196296
 42
0.0
  0
SEQEND
  0
POLYLINE
  8
MMBT2222A
 66
     1
 10
0.0
 20
0.0
 30
0.0
 70
     1
  0
VERTEX
  8
MMBT2222A
 10
0.9988255783743
 20
-5.3901069290046
 42
-0.0270538171884
  0
VERTEX
  8
MMBT2222A
 10
1.0297384152746
 20
-5.3916415978561
 42
-0.0526658875701
  0
VERTEX
  8
MMBT2222A
 10
1.0600560471243
 20
-5.3978706008796
 42
-0.0579981399718
  0
VERTEX
  8
MMBT2222A
 10
1.0796401534822
 20
-5.4069894186857
 42
-0.0817809019288
  0
VERTEX
  8
MMBT2222A
 10
1.0959447189993
 20
-5.4211616165046
 42
-0.0972991965932
  0
VERTEX
  8
MMBT2222A
 10
1.1056669728657
 20
-5.439537221282
 42
-0.074407141649
  0
VERTEX
  8
MMBT2222A
 10
1.1085423752493
 20
-5.4601264602546
 42
-0.1252275157865
  0
VERTEX
  8
MMBT2222A
 10
1.1015111252493
 20
-5.4904487258796
 42
-0.1308306083753
  0
VERTEX
  8
MMBT2222A
 10
1.0814427658743
 20
-5.5119819290046
 42
-0.0811721350505
  0
VERTEX
  8
MMBT2222A
 10
1.0495091721243
 20
-5.5253120071296
 42
-0.0417311222957
  0
VERTEX
  8
MMBT2222A
 10
1.0243091467346
 20
-5.5292154661097
 42
-0.0200166472446
  0
VERTEX
  8
MMBT2222A
 10
0.9988255783743
 20
-5.5301459915046
 42
-0.027287322408
  0
VERTEX
  8
MMBT2222A
 10
0.9679866667823
 20
-5.5286003180679
 42
-0.0520730188516
  0
VERTEX
  8
MMBT2222A
 10
0.9377415939993
 20
-5.5223823196296
 42
-0.0592732323467
  0
VERTEX
  8
MMBT2222A
 10
0.9181449323552
 20
-5.5132828446236
 42
-0.081264220665
  0
VERTEX
  8
MMBT2222A
 10
0.9018529221243
 20
-5.4990913040046
 42
-0.0988333086315
  0
VERTEX
  8
MMBT2222A
 10
0.8921103510604
 20
-5.4807222715867
 42
-0.074051331334
  0
VERTEX
  8
MMBT2222A
 10
0.8892552658743
 20
-5.4601264602546
 42
-0.1046174723862
  0
VERTEX
  8
MMBT2222A
 10
0.8945268337926
 20
-5.433061410029
 42
-0.1230503809635
  0
VERTEX
  8
MMBT2222A
 10
0.9115208908743
 20
-5.4113471633796
 42
-0.0740833537627
  0
VERTEX
  8
MMBT2222A
 10
0.9314975058707
 20
-5.4001727705019
 42
-0.0601609931443
  0
VERTEX
  8
MMBT2222A
 10
0.9647111910458
 20
-5.3921275703154
 42
-0.0322260720832
  0
SEQEND
  0
POLYLINE
  8
MMBT2222A
 66
     1
 10
0.0
 20
0.0
 30
0.0
 70
     1
  0
VERTEX
  8
MMBT2222A
 10
0.9988255783743
 20
-5.4172065383796
 42
0.0298698666627
  0
VERTEX
  8
MMBT2222A
 10
0.9628505961471
 20
-5.4190900644965
 42
0.0339540456925
  0
VERTEX
  8
MMBT2222A
 10
0.9450328275027
 20
-5.4223954015565
 42
0.084666292222
  0
VERTEX
  8
MMBT2222A
 10
0.9283665939993
 20
-5.4295112258796
 42
0.1018848151884
  0
VERTEX
  8
MMBT2222A
 10
0.915756147926
 20
-5.4426013335826
 42
0.139392797476
  0
VERTEX
  8
MMBT2222A
 10
0.9109349533743
 20
-5.4601264602546
 42
0.1411092296746
  0
VERTEX
  8
MMBT2222A
 10
0.9158037000289
 20
-5.4776225501671
 42
0.102659777138
  0
VERTEX
  8
MMBT2222A
 10
0.9285130783743
 20
-5.4905952102546
 42
0.0851876114291
  0
VERTEX
  8
MMBT2222A
 10
0.9451209130734
 20
-5.4977848158012
 42
0.0442315649717
  0
VERTEX
  8
MMBT2222A
 10
0.9718130380164
 20
-5.5020507843304
 42
0.0202726986031
  0
VERTEX
  8
MMBT2222A
 10
0.9988255783743
 20
-5.5030463821296
 42
0.0301198451876
  0
VERTEX
  8
MMBT2222A
 10
1.0348195347387
 20
-5.5011467554155
 42
0.0344111176092
  0
VERTEX
  8
MMBT2222A
 10
1.0526446647155
 20
-5.4978066489366
 42
0.0862698409776
  0
VERTEX
  8
MMBT2222A
 10
1.0692845627493
 20
-5.4905952102546
 42
0.1046611523255
  0
VERTEX
  8
MMBT2222A
 10
1.0819505043507
 20
-5.4774527559003
 42
0.138042616063
  0
VERTEX
  8
MMBT2222A
 10
1.0867162033743
 20
-5.4598334915046
 42
0.2591794742601
  0
VERTEX
  8
MMBT2222A
 10
1.0713353439993
 20
-5.4308295852546
 42
0.0790654132826
  0
VERTEX
  8
MMBT2222A
 10
1.0542677015287
 20
-5.4231768546008
 42
0.0470465263133
  0
VERTEX
  8
MMBT2222A
 10
1.0267442842803
 20
-5.4183562884348
 42
0.0225629424616
  0
SEQEND
  0
POLYLINE
  8
MMBT2222A
 66
     1
 10
0.0
 20
0.0
 30
0.0
 70
     1
  0
VERTEX
  8
MMBT2222A
 10
0.9707005783743
 20
-5.5544623977546
 42
-0.0793096936787
  0
VERTEX
  8
MMBT2222A
 10
1.0053527096224
 20
-5.5594253513057
 42
-0.1374207317704
  0
VERTEX
  8
MMBT2222A
 10
1.0347142502493
 20
-5.5784858352546
 42
-0.096263100432
  0
VERTEX
  8
MMBT2222A
 10
1.0478860516759
 20
-5.6013485791262
 42
-0.0831137495427
  0
VERTEX
  8
MMBT2222A
 10
1.0519994064993
 20
-5.6274116165046
 42
-0.0934089194758
  0
VERTEX
  8
MMBT2222A
 10
1.0470019903293
 20
-5.6558645040647
 42
-0.1096263509906
  0
VERTEX
  8
MMBT2222A
 10
1.0309056564993
 20
-5.6798530227546
 42
-0.1171189234928
  0
VERTEX
  8
MMBT2222A
 10
1.0039248649353
 20
-5.6957973603974
 42
-0.0774662695115
  0
VERTEX
  8
MMBT2222A
 10
0.9728978439993
 20
-5.7002143508796
 42
-0.0406641775012
  0
VERTEX
  8
MMBT2222A
 10
0.9487136105312
 20
-5.698418896889
 42
-0.0791503273496
  0
VERTEX
  8
MMBT2222A
 10
0.9255833908743
 20
-5.6911323196296
 42
-0.1510120015038
  0
VERTEX
  8
MMBT2222A
 10
0.8989232346243
 20
-5.6649116165046
 42
-0.1294988566368
  0
VERTEX
  8
MMBT2222A
 10
0.8894017502493
 20
-5.6274116165046
 42
-0.0911724948852
  0
VERTEX
  8
MMBT2222A
 10
0.8942894585162
 20
-5.5987584865396
 42
-0.1118836502062
  0
VERTEX
  8
MMBT2222A
 10
0.9103490158743
 20
-5.5745307571296
 42
-0.1209671023324
  0
VERTEX
  8
MMBT2222A
 10
0.938578110894
 20
-5.5586423141148
 42
-0.0714526457578
  0
SEQEND
  0
POLYLINE
  8
MMBT2222A
 66
     1
 10
0.0
 20
0.0
 30
0.0
 70
     1
  0
VERTEX
  8
MMBT2222A
 10
0.9707005783743
 20
-5.5815620071296
 42
0.0602733930122
  0
VERTEX
  8
MMBT2222A
 10
0.9471380382745
 20
-5.5841251481599
 42
0.1192897023427
  0
VERTEX
  8
MMBT2222A
 10
0.9258763596243
 20
-5.5945991165046
 42
0.225829144534
  0
VERTEX
  8
MMBT2222A
 10
0.9110814377493
 20
-5.6274116165046
 42
0.2272931422955
  0
VERTEX
  8
MMBT2222A
 10
0.9260228439993
 20
-5.6600776321296
 42
0.1206046753197
  0
VERTEX
  8
MMBT2222A
 10
0.9476589580907
 20
-5.6705874730523
 42
0.0586771310173
  0
VERTEX
  8
MMBT2222A
 10
0.9715794846243
 20
-5.6731147415046
 42
0.0633962461497
  0
VERTEX
  8
MMBT2222A
 10
0.9945985089738
 20
-5.6704726215101
 42
0.1191858816916
  0
VERTEX
  8
MMBT2222A
 10
1.0152318283743
 20
-5.6599311477546
 42
0.22727685936
  0
VERTEX
  8
MMBT2222A
 10
1.0301732346243
 20
-5.6274116165046
 42
0.2258325838835
  0
VERTEX
  8
MMBT2222A
 10
1.0153783127493
 20
-5.5945991165046
 42
0.1204891174352
  0
VERTEX
  8
MMBT2222A
 10
0.9941963980882
 20
-5.5841157078257
 42
0.0602735550367
  0
SEQEND
  0
POLYLINE
  8
MMBT2222A
 66
     1
 10
0.0
 20
0.0
 30
0.0
 70
     1
  0
VERTEX
  8
MMBT2222A
 10
0.8929173752493
 20
-5.7311225540046
 42
0.0
  0
VERTEX
  8
MMBT2222A
 10
1.1076634689993
 20
-5.7311225540046
 42
0.0
  0
VERTEX
  8
MMBT2222A
 10
1.1076634689993
 20
-5.7574897415046
 42
0.0
  0
VERTEX
  8
MMBT2222A
 10
1.0306126877493
 20
-5.7574897415046
 42
-0.1082686136381
  0
VERTEX
  8
MMBT2222A
 10
1.0466383941534
 20
-5.7783325724634
 42
-0.1091437668942
  0
VERTEX
  8
MMBT2222A
 10
1.0519994064993
 20
-5.8040717727546
 42
-0.125107824539
  0
VERTEX
  8
MMBT2222A
 10
1.0451146408743
 20
-5.8341010696296
 42
-0.1709251313845
  0
VERTEX
  8
MMBT2222A
 10
1.0263646408743
 20
-5.8522651321296
 42
-0.0736808671096
  0
VERTEX
  8
MMBT2222A
 10
1.0092117346527
 20
-5.8567940892731
 42
-0.0324325327068
  0
VERTEX
  8
MMBT2222A
 10
0.9915013596243
 20
-5.8578315383796
 42
0.0
  0
VERTEX
  8
MMBT2222A
 10
0.8929173752493
 20
-5.8578315383796
 42
0.0
  0
VERTEX
  8
MMBT2222A
 10
0.8929173752493
 20
-5.8314643508796
 42
0.0
  0
VERTEX
  8
MMBT2222A
 10
0.9915013596243
 20
-5.8314643508796
 42
0.060393935517
  0
VERTEX
  8
MMBT2222A
 10
1.0066646010337
 20
-5.8298265061595
 42
0.131827590397
  0
VERTEX
  8
MMBT2222A
 10
1.0202122971243
 20
-5.8228217727546
 42
0.1243992412397
  0
VERTEX
  8
MMBT2222A
 10
1.0273218396856
 20
-5.8117019603504
 42
0.0825280730485
  0
VERTEX
  8
MMBT2222A
 10
1.0292943283743
 20
-5.7986518508796
 42
0.1367687146937
  0
VERTEX
  8
MMBT2222A
 10
1.0231419846243
 20
-5.7765327102546
 42
0.165864254172
  0
VERTEX
  8
MMBT2222A
 10
1.0067357346243
 20
-5.7618842727546
 42
0.0663267010342
  0
VERTEX
  8
MMBT2222A
 10
0.9925867568215
 20
-5.7583379285781
 42
0.0320115005205
  0
VERTEX
  8
MMBT2222A
 10
0.9780247971243
 20
-5.7574897415046
 42
0.0
  0
VERTEX
  8
MMBT2222A
 10
0.8929173752493
 20
-5.7574897415046
 42
0.0
  0
SEQEND
  0
POLYLINE
  8
MMBT2222A
 66
     1
 10
0.0
 20
0.0
 30
0.0
 70
     1
  0
VERTEX
  8
MMBT2222A
 10
0.8929173752493
 20
-5.8979682571296
 42
0.0
  0
VERTEX
  8
MMBT2222A
 10
1.0484837814993
 20
-5.8979682571296
 42
0.0
  0
VERTEX
  8
MMBT2222A
 10
1.0484837814993
 20
-5.9215522415046
 42
0.0
  0
VERTEX
  8
MMBT2222A
 10
1.0266576096243
 20
-5.9215522415046
 42
-0.1237865024167
  0
VERTEX
  8
MMBT2222A
 10
1.0449681564993
 20
-5.9410346633796
 42
-0.1337135129245
  0
VERTEX
  8
MMBT2222A
 10
1.0519994064993
 20
-5.9687202102546
 42
-0.0566030402157
  0
VERTEX
  8
MMBT2222A
 10
1.0504606193608
 20
-5.983376438506
 42
-0.0883767838935
  0
VERTEX
  8
MMBT2222A
 10
1.0448216721243
 20
-5.9969916946296
 42
-0.1710428142704
  0
VERTEX
  8
MMBT2222A
 10
1.0247533127493
 20
-6.0126655227546
 42
-0.1111336983761
  0
VERTEX
  8
MMBT2222A
 10
1.0447173906788
 20
-6.0330931342131
 42
-0.1364967409105
  0
VERTEX
  8
MMBT2222A
 10
1.0519994064993
 20
-6.0607123977546
 42
-0.0789617455113
  0
VERTEX
  8
MMBT2222A
 10
1.049238482453
 20
-6.079844510581
 42
-0.1237390524611
  0
VERTEX
  8
MMBT2222A
 10
1.0391087814993
 20
-6.0963081008796
 42
-0.1292020393114
  0
VERTEX
  8
MMBT2222A
 10
1.0206011348472
 20
-6.1063139240759
 42
-0.0650508715923
  0
VERTEX
  8
MMBT2222A
 10
0.9997044846243
 20
-6.1087592727546
 42
0.0
  0
VERTEX
  8
MMBT2222A
 10
0.8929173752493
 20
-6.1087592727546
 42
0.0
  0
VERTEX
  8
MMBT2222A
 10
0.8929173752493
 20
-6.0825385696296
 42
0.0
  0
VERTEX
  8
MMBT2222A
 10
0.9909154221243
 20
-6.0825385696296
 42
0.0217149388576
  0
VERTEX
  8
MMBT2222A
 10
1.0023697510554
 20
-6.0820967817844
 42
0.0644283992845
  0
VERTEX
  8
MMBT2222A
 10
1.0136205002493
 20
-6.0799018508796
 42
0.1732075054459
  0
VERTEX
  8
MMBT2222A
 10
1.0248997971243
 20
-6.0706733352546
 42
0.143602475522
  0
VERTEX
  8
MMBT2222A
 10
1.0291478439993
 20
-6.0548530227546
 42
0.2087776682619
  0
VERTEX
  8
MMBT2222A
 10
1.0181615158743
 20
-6.0276069290046
 42
0.134174182763
  0
VERTEX
  8
MMBT2222A
 10
1.0017718461881
 20
-6.0188358069289
 42
0.0625983076731
  0
VERTEX
  8
MMBT2222A
 10
0.9832982346243
 20
-6.0167670852546
 42
0.0
  0
VERTEX
  8
MMBT2222A
 10
0.8929173752493
 20
-6.0167670852546
 42
0.0
  0
VERTEX
  8
MMBT2222A
 10
0.8929173752493
 20
-5.9903998977546
 42
0.0
  0
VERTEX
  8
MMBT2222A
 10
0.9939915939993
 20
-5.9903998977546
 42
0.0498575167131
  0
VERTEX
  8
MMBT2222A
 10
1.0076627647882
 20
-5.9891718440389
 42
0.1071312157104
  0
VERTEX
  8
MMBT2222A
 10
1.0203587814993
 20
-5.9839545852546
 42
0.1509887115456
  0
VERTEX
  8
MMBT2222A
 10
1.0273321159514
 20
-5.9744822059151
 42
0.087074476473
  0
VERTEX
  8
MMBT2222A
 10
1.0291478439993
 20
-5.9628608352546
 42
0.1415206049183
  0
VERTEX
  8
MMBT2222A
 10
1.0232884689993
 20
-5.9422065383796
 42
0.1685840439044
  0
VERTEX
  8
MMBT2222A
 10
1.0061497971243
 20
-5.9285834915046
 42
0.0611783772855
  0
VERTEX
  8
MMBT2222A
 10
0.9900647540105
 20
-5.9251219499539
 42
0.0264962736179
  0
VERTEX
  8
MMBT2222A
 10
0.9736302658743
 20
-5.9243354446296
 42
0.0
  0
VERTEX
  8
MMBT2222A
 10
0.8929173752493
 20
-5.9243354446296
 42
0.0
  0
SEQEND
  0
POLYLINE
  8
trace
 66
     1
 10
0.0
 20
0.0
 30
0.0
 70
     0
  0
VERTEX
  8
trace
 10
5.0
 20
-7.0
 42
0.0
  0
VERTEX
  8
trace
 10
5.0
 20
-9.0
 42
0.0
  0
SEQEND
  0
POLYLINE
  8
trace
 66
     1
 10
0.0
 20
0.0
 30
0.0
 70
     0
  0
VERTEX
  8
trace
 10
3.0
 20
-9.0
 42
0.0
  0
VERTEX
  8
trace
 10
3.0
 20
-7.0
 42
0.0
  0
SEQEND
  0
POLYLINE
  8
trace
 66
     1
 10
0.0
 20
0.0
 30
0.0
 70
     0
  0
VERTEX
  8
trace
 10
3.0
 20
-7.0
 42
0.0
  0
VERTEX
  8
trace
 10
4.0
 20
-5.5
 42
0.0
  0
VERTEX
  8
trace
 10
4.5
 20
-5.5
 42
0.0
  0
SEQEND
  0
POLYLINE
  8
trace
 66
     1
 10
0.0
 20
0.0
 30
0.0
 70
     0
  0
VERTEX
  8
trace
 10
5.5
 20
-2.0
 42
0.0
  0
VERTEX
  8
trace
 10
5.5
 20
-7.0
 42
0.0
  0
SEQEND
  0
POLYLINE
  8
trace
 66
     1
 10
0.0
 20
0.0
 30
0.0
 70
     0
  0
VERTEX
  8
trace
 10
1.0
 20
-9.0
 42
0.0
  0
VERTEX
  8
trace
 10
1.0
 20
-7.0
 42
0.0
  0
SEQEND
  0
POLYLINE
  8
trace
 66
     1
 10
0.0
 20
0.0
 30
0.0
 70
     0
  0
VERTEX
  8
trace
 10
1.0
 20
-4.5
 42
0.0
  0
VERTEX
  8
trace
 10
2.5
 20
-4.5
 42
0.0
  0
VERTEX
  8
trace
 10
2.5
 20
-5.0
 42
0.0
  0
SEQEND
  0
POLYLINE
  8
trace
 66
     1
 10
0.0
 20
0.0
 30
0.0
 70
     0
  0
VERTEX
  8
trace
 10
3.5
 20
-3.0
 42
0.0
  0
VERTEX
  8
trace
 10
3.5
 20
-2.0
 42
0.0
  0
SEQEND
  0
POLYLINE
  8
trace
 66
     1
 10
0.0
 20
0.0
 30
0.0
 70
     0
  0
VERTEX
  8
trace
 10
3.0
 20
-2.0
 42
0.0
  0
VERTEX
  8
trace
 10
3.0
 20
0.0
 42
0.0
  0
SEQEND
  0
POLYLINE
  8
trace
 66
     1
 10
0.0
 20
0.0
 30
0.0
 70
     0
  0
VERTEX
  8
trace
 10
5.0
 20
-2.0
 42
0.0
  0
VERTEX
  8
trace
 10
5.0
 20
0.0
 42
0.0
  0
SEQEND
  0
POLYLINE
  8
piste
 66
     1
 10
0.0
 20
0.0
 30
0.0
 70
     0
  0
VERTEX
  8
piste
 10
3.6
 20
-1.8267949192431
 42
0.0
  0
VERTEX
  8
piste
 10
3.6
 20
0.0
 42
1.0
  0
VERTEX
  8
piste
 10
2.4
 20
0.0
 42
0.0
  0
VERTEX
  8
piste
 10
2.4
 20
-2.0
 42
0.5773502691896
  0
VERTEX
  8
piste
 10
3.3
 20
-2.5196152422707
 42
0.0
  0
SEQEND
  0
POLYLINE
  8
piste
 66
     1
 10
0.0
 20
0.0
 30
0.0
 70
     0
  0
VERTEX
  8
piste
 10
5.6
 20
-7.1732050807569
 42
0.2679491924311
  0
VERTEX
  8
piste
 10
5.7
 20
-7.0
 42
0.0
  0
VERTEX
  8
piste
 10
5.7
 20
-2.0
 42
0.2679491924311
  0
VERTEX
  8
piste
 10
5.6
 20
-1.8267949192431
 42
0.0
  0
SEQEND
  0
POLYLINE
  8
piste
 66
     1
 10
0.0
 20
0.0
 30
0.0
 70
     0
  0
VERTEX
  8
piste
 10
5.3
 20
-2.5196152422707
 42
0.0
  0
VERTEX
  8
piste
 10
5.3
 20
-6.4803847577293
 42
0.0
  0
SEQEND
  0
POLYLINE
  8
piste
 66
     1
 10
0.0
 20
0.0
 30
0.0
 70
     0
  0
VERTEX
  8
piste
 10
5.6
 20
-1.8267949192431
 42
0.0
  0
VERTEX
  8
piste
 10
5.6
 20
0.0
 42
1.0
  0
VERTEX
  8
piste
 10
4.4
 20
0.0
 42
0.0
  0
VERTEX
  8
piste
 10
4.4
 20
-2.0
 42
0.5773502691896
  0
VERTEX
  8
piste
 10
5.3
 20
-2.5196152422707
 42
0.0
  0
SEQEND
  0
POLYLINE
  8
piste
 66
     1
 10
0.0
 20
0.0
 30
0.0
 70
     0
  0
VERTEX
  8
piste
 10
3.3
 20
-2.8
 42
0.0
  0
VERTEX
  8
piste
 10
3.25
 20
-2.8
 42
0.4142135623731
  0
VERTEX
  8
piste
 10
3.15
 20
-2.9
 42
0.0
  0
VERTEX
  8
piste
 10
3.15
 20
-3.6
 42
0.4142135623731
  0
VERTEX
  8
piste
 10
3.25
 20
-3.7
 42
0.0
  0
VERTEX
  8
piste
 10
3.75
 20
-3.7
 42
0.4142135623731
  0
VERTEX
  8
piste
 10
3.85
 20
-3.6
 42
0.0
  0
VERTEX
  8
piste
 10
3.85
 20
-2.9
 42
0.4142135623731
  0
VERTEX
  8
piste
 10
3.75
 20
-2.8
 42
0.0
  0
VERTEX
  8
piste
 10
3.7
 20
-2.8
 42
0.0
  0
SEQEND
  0
POLYLINE
  8
piste
 66
     1
 10
0.0
 20
0.0
 30
0.0
 70
     0
  0
VERTEX
  8
piste
 10
4.15
 20
-5.7
 42
0.4142135623731
  0
VERTEX
  8
piste
 10
4.25
 20
-5.8
 42
0.0
  0
VERTEX
  8
piste
 10
4.75
 20
-5.8
 42
0.4142135623731
  0
VERTEX
  8
piste
 10
4.85
 20
-5.7
 42
0.0
  0
VERTEX
  8
piste
 10
4.85
 20
-5.0
 42
0.4142135623731
  0
VERTEX
  8
piste
 10
4.75
 20
-4.9
 42
0.0
  0
VERTEX
  8
piste
 10
4.25
 20
-4.9
 42
0.4142135623731
  0
VERTEX
  8
piste
 10
4.15
 20
-5.0
 42
0.0
  0
VERTEX
  8
piste
 10
4.15
 20
-5.3
 42
0.0
  0
SEQEND
  0
POLYLINE
  8
piste
 66
     1
 10
0.0
 20
0.0
 30
0.0
 70
     0
  0
VERTEX
  8
piste
 10
2.3
 20
-4.9
 42
0.0
  0
VERTEX
  8
piste
 10
2.25
 20
-4.9
 42
0.4142135623731
  0
VERTEX
  8
piste
 10
2.15
 20
-5.0
 42
0.0
  0
VERTEX
  8
piste
 10
2.15
 20
-5.7
 42
0.4142135623731
  0
VERTEX
  8
piste
 10
2.25
 20
-5.8
 42
0.0
  0
VERTEX
  8
piste
 10
2.75
 20
-5.8
 42
0.4142135623731
  0
VERTEX
  8
piste
 10
2.85
 20
-5.7
 42
0.0
  0
VERTEX
  8
piste
 10
2.85
 20
-5.0
 42
0.4142135623731
  0
VERTEX
  8
piste
 10
2.75
 20
-4.9
 42
0.0
  0
VERTEX
  8
piste
 10
2.7
 20
-4.9
 42
0.0
  0
SEQEND
  0
POLYLINE
  8
piste
 66
     1
 10
0.0
 20
0.0
 30
0.0
 70
     0
  0
VERTEX
  8
piste
 10
1.75
 20
-4.3
 42
0.4142135623731
  0
VERTEX
  8
piste
 10
1.65
 20
-4.2
 42
0.0
  0
VERTEX
  8
piste
 10
0.35
 20
-4.2
 42
0.4142135623731
  0
VERTEX
  8
piste
 10
0.25
 20
-4.3
 42
0.0
  0
VERTEX
  8
piste
 10
0.25
 20
-5.0
 42
0.4142135623731
  0
VERTEX
  8
piste
 10
0.35
 20
-5.1
 42
0.0
  0
VERTEX
  8
piste
 10
1.65
 20
-5.1
 42
0.4142135623731
  0
VERTEX
  8
piste
 10
1.75
 20
-5.0
 42
0.0
  0
VERTEX
  8
piste
 10
1.75
 20
-4.7
 42
0.0
  0
SEQEND
  0
POLYLINE
  8
piste
 66
     1
 10
0.0
 20
0.0
 30
0.0
 70
     0
  0
VERTEX
  8
piste
 10
1.6
 20
-7.0
 42
0.0
  0
VERTEX
  8
piste
 10
1.65
 20
-7.0
 42
0.4142135623731
  0
VERTEX
  8
piste
 10
1.75
 20
-6.9
 42
0.0
  0
VERTEX
  8
piste
 10
1.75
 20
-6.2
 42
0.4142135623731
  0
VERTEX
  8
piste
 10
1.65
 20
-6.1
 42
0.0
  0
VERTEX
  8
piste
 10
0.35
 20
-6.1
 42
0.4142135623731
  0
VERTEX
  8
piste
 10
0.25
 20
-6.2
 42
0.0
  0
VERTEX
  8
piste
 10
0.25
 20
-6.9
 42
0.4142135623731
  0
VERTEX
  8
piste
 10
0.35
 20
-7.0
 42
0.0
  0
VERTEX
  8
piste
 10
0.4
 20
-7.0
 42
0.0
  0
SEQEND
  0
POLYLINE
  8
piste
 66
     1
 10
0.0
 20
0.0
 30
0.0
 70
     0
  0
VERTEX
  8
piste
 10
4.15
 20
-5.3
 42
0.0
  0
VERTEX
  8
piste
 10
4.0
 20
-5.3
 42
0.2507648909333
  0
VERTEX
  8
piste
 10
3.8335899411324
 20
-5.389059960755
 42
0.0
  0
VERTEX
  8
piste
 10
3.1473757573535
 20
-6.4183812364233
 42
0.0
  0
SEQEND
  0
POLYLINE
  8
piste
 66
     1
 10
0.0
 20
0.0
 30
0.0
 70
     0
  0
VERTEX
  8
piste
 10
3.4801958750887
 20
-6.6402613149134
 42
0.0
  0
VERTEX
  8
piste
 10
4.1070367516976
 20
-5.7
 42
0.0
  0
VERTEX
  8
piste
 10
4.15
 20
-5.7
 42
0.0
  0
SEQEND
  0
POLYLINE
  8
piste
 66
     1
 10
0.0
 20
0.0
 30
0.0
 70
     0
  0
VERTEX
  8
piste
 10
3.1473757573535
 20
-6.4183812364233
 42
0.488915193891
  0
VERTEX
  8
piste
 10
2.4
 20
-7.0
 42
0.0
  0
VERTEX
  8
piste
 10
2.4
 20
-9.0
 42
1.0
  0
VERTEX
  8
piste
 10
3.6
 20
-9.0
 42
0.0
  0
VERTEX
  8
piste
 10
3.6
 20
-7.0
 42
0.1621380061299
  0
VERTEX
  8
piste
 10
3.4801958750887
 20
-6.6402613149134
 42
0.0
  0
SEQEND
  0
POLYLINE
  8
piste
 66
     1
 10
0.0
 20
0.0
 30
0.0
 70
     0
  0
VERTEX
  8
piste
 10
0.4
 20
-7.0
 42
0.0
  0
VERTEX
  8
piste
 10
0.4
 20
-9.0
 42
1.0
  0
VERTEX
  8
piste
 10
1.6
 20
-9.0
 42
0.0
  0
VERTEX
  8
piste
 10
1.6
 20
-7.0
 42
0.0
  0
SEQEND
  0
POLYLINE
  8
piste
 66
     1
 10
0.0
 20
0.0
 30
0.0
 70
     0
  0
VERTEX
  8
piste
 10
5.3
 20
-6.4803847577293
 42
0.5773502691896
  0
VERTEX
  8
piste
 10
4.4
 20
-7.0
 42
0.0
  0
VERTEX
  8
piste
 10
4.4
 20
-9.0
 42
1.0
  0
VERTEX
  8
piste
 10
5.6
 20
-9.0
 42
0.0
  0
VERTEX
  8
piste
 10
5.6
 20
-7.1732050807569
 42
0.0
  0
SEQEND
  0
POLYLINE
  8
piste
 66
     1
 10
0.0
 20
0.0
 30
0.0
 70
     0
  0
VERTEX
  8
piste
 10
3.3
 20
-2.5196152422707
 42
0.0
  0
VERTEX
  8
piste
 10
3.3
 20
-2.8
 42
0.0
  0
SEQEND
  0
POLYLINE
  8
piste
 66
     1
 10
0.0
 20
0.0
 30
0.0
 70
     0
  0
VERTEX
  8
piste
 10
3.7
 20
-2.8
 42
0.0
  0
VERTEX
  8
piste
 10
3.7
 20
-2.0
 42
0.2679491924311
  0
VERTEX
  8
piste
 10
3.6
 20
-1.8267949192431
 42
0.0
  0
SEQEND
  0
POLYLINE
  8
piste
 66
     1
 10
0.0
 20
0.0
 30
0.0
 70
     0
  0
VERTEX
  8
piste
 10
2.7
 20
-4.9
 42
0.0
  0
VERTEX
  8
piste
 10
2.7
 20
-4.5
 42
0.4142135623731
  0
VERTEX
  8
piste
 10
2.5
 20
-4.3
 42
0.0
  0
VERTEX
  8
piste
 10
1.75
 20
-4.3
 42
0.0
  0
SEQEND
  0
POLYLINE
  8
piste
 66
     1
 10
0.0
 20
0.0
 30
0.0
 70
     0
  0
VERTEX
  8
piste
 10
1.75
 20
-4.7
 42
0.0
  0
VERTEX
  8
piste
 10
2.3
 20
-4.7
 42
0.0
  0
VERTEX
  8
piste
 10
2.3
 20
-4.9
 42
0.0
  0
SEQEND
  0
POLYLINE
  8
pcb
 66
     1
 10
0.0
 20
0.0
 30
0.0
 70
     1
  0
VERTEX
  8
pcb
 10
0.9801580096233
 20
-10.4133578310387
 42
0.0
  0
VERTEX
  8
pcb
 10
1.0473455096233
 20
-10.4133578310387
 42
0.0
  0
VERTEX
  8
pcb
 10
1.0477361346233
 20
-10.6559359560387
 42
0.0
  0
VERTEX
  8
pcb
 10
0.8352361346233
 20
-10.6559359560387
 42
-0.0774021438219
  0
VERTEX
  8
pcb
 10
0.7680486346233
 20
-10.5407015810387
 42
-0.0906617406007
  0
VERTEX
  8
pcb
 10
0.7457830096233
 20
-10.4188265810387
 42
-0.1219233792707
  0
VERTEX
  8
pcb
 10
0.7817205096233
 20
-10.2653109560387
 42
-0.1573130286758
  0
VERTEX
  8
pcb
 10
0.8864080096233
 20
-10.1614047060387
 42
-0.1206881723119
  0
VERTEX
  8
pcb
 10
1.0391423846233
 20
-10.1262484560387
 42
-0.1139490429369
  0
VERTEX
  8
pcb
 10
1.1950017596233
 20
-10.1610140810387
 42
-0.0738058411306
  0
VERTEX
  8
pcb
 10
1.2570757327587
 20
-10.2026671299153
 42
-0.0844132093885
  0
VERTEX
  8
pcb
 10
1.3028142596233
 20
-10.2617953310387
 42
-0.0685050712349
  0
VERTEX
  8
pcb
 10
1.3298165310882
 20
-10.3351896070649
 42
-0.0548966733401
  0
VERTEX
  8
pcb
 10
1.3379705096233
 20
-10.4129672060387
 42
-0.09705672173
  0
VERTEX
  8
pcb
 10
1.3176580096233
 20
-10.5250765810387
 42
-0.0569709222661
  0
VERTEX
  8
pcb
 10
1.2949641826192
 20
-10.5682362906176
 42
-0.0744130647164
  0
VERTEX
  8
pcb
 10
1.2617986346233
 20
-10.6039828310387
 42
-0.0629253232855
  0
VERTEX
  8
pcb
 10
1.2171790597986
 20
-10.6305391407364
 42
-0.0417947631761
  0
VERTEX
  8
pcb
 10
1.1680486346233
 20
-10.6473422060387
 42
0.0
  0
VERTEX
  8
pcb
 10
1.1492986346233
 20
-10.5789828310387
 42
0.0329802938764
  0
VERTEX
  8
pcb
 10
1.1850951951403
 20
-10.566018367613
 42
0.0579966641546
  0
VERTEX
  8
pcb
 10
1.2180486346233
 20
-10.5469515810387
 42
0.1316721598982
  0
VERTEX
  8
pcb
 10
1.2578923846233
 20
-10.4922640810387
 42
0.1021918078377
  0
VERTEX
  8
pcb
 10
1.2731267596233
 20
-10.4133578310387
 42
0.0410027331706
  0
VERTEX
  8
pcb
 10
1.2695906554118
 20
-10.3676388270954
 42
0.0589117368515
  0
VERTEX
  8
pcb
 10
1.2571111346233
 20
-10.3235140810387
 42
0.1113183971007
  0
VERTEX
  8
pcb
 10
1.2157048846233
 20
-10.2621859560387
 42
0.0841985162712
  0
VERTEX
  8
pcb
 10
1.1590642596233
 20
-10.2262484560387
 42
0.0987131177403
  0
VERTEX
  8
pcb
 10
1.0438298846233
 20
-10.2043734560387
 42
0.0459585446087
  0
VERTEX
  8
pcb
 10
0.9782422772429
 20
-10.2099932143263
 42
0.071377304991
  0
VERTEX
  8
pcb
 10
0.9157048846233
 20
-10.2305453310387
 42
0.1641311245735
  0
VERTEX
  8
pcb
 10
0.8391423846233
 20
-10.3074984560387
 42
0.1172113872264
  0
VERTEX
  8
pcb
 10
0.8141423846233
 20
-10.4145297060387
 42
0.0962700372958
  0
VERTEX
  8
pcb
 10
0.8328923846233
 20
-10.5106234560387
 42
0.0281896528337
  0
VERTEX
  8
pcb
 10
0.8503591788198
 20
-10.5477964706886
 42
0.0550847851781
  0
VERTEX
  8
pcb
 10
0.8735173846233
 20
-10.5817172060387
 42
0.0
  0
VERTEX
  8
pcb
 10
0.9801580096233
 20
-10.5817172060387
 42
0.0
  0
SEQEND
  0
POLYLINE
  8
pcb
 66
     1
 10
0.0
 20
0.0
 30
0.0
 70
     1
  0
VERTEX
  8
pcb
 10
0.7555486346233
 20
-10.7676547060387
 42
0.0
  0
VERTEX
  8
pcb
 10
1.3282048846233
 20
-10.7676547060387
 42
0.0
  0
VERTEX
  8
pcb
 10
1.3282048846233
 20
-10.9836703310387
 42
-0.0125871827733
  0
VERTEX
  8
pcb
 10
1.3272142337904
 20
-11.0273344752425
 42
-0.0306799216219
  0
VERTEX
  8
pcb
 10
1.3227361346233
 20
-11.0707797060387
 42
-0.1114481767508
  0
VERTEX
  8
pcb
 10
1.2957830096233
 20
-11.1414828310387
 42
-0.1321823284095
  0
VERTEX
  8
pcb
 10
1.2407048846233
 20
-11.1871859560387
 42
-0.1166735739478
  0
VERTEX
  8
pcb
 10
1.1625798846233
 20
-11.2047640810387
 42
-0.0887731343064
  0
VERTEX
  8
pcb
 10
1.0961559450082
 20
-11.1935356220416
 42
-0.0983799491552
  0
VERTEX
  8
pcb
 10
1.0387517596233
 20
-11.1582797060387
 42
-0.0921186931443
  0
VERTEX
  8
pcb
 10
1.0121338420758
 20
-11.1218123866941
 42
-0.0753738013398
  0
VERTEX
  8
pcb
 10
0.993037133319
 20
-11.0573651360935
 42
-0.0381981210929
  0
VERTEX
  8
pcb
 10
0.9883611346233
 20
-10.9903109560387
 42
0.0
  0
VERTEX
  8
pcb
 10
0.9883611346233
 20
-10.8434359560387
 42
0.0
  0
VERTEX
  8
pcb
 10
0.7555486346233
 20
-10.8434359560387
 42
0.0
  0
SEQEND
  0
POLYLINE
  8
pcb
 66
     1
 10
0.0
 20
0.0
 30
0.0
 70
     1
  0
VERTEX
  8
pcb
 10
1.0559392596233
 20
-10.8434359560387
 42
0.0
  0
VERTEX
  8
pcb
 10
1.0559392596233
 20
-10.9914828310387
 42
0.0504546255786
  0
VERTEX
  8
pcb
 10
1.0608200781418
 20
-11.0459360407641
 42
0.0488988841987
  0
VERTEX
  8
pcb
 10
1.0688491958812
 20
-11.0723010640489
 42
0.080844023593
  0
VERTEX
  8
pcb
 10
1.0832830096233
 20
-11.0957797060387
 42
0.1246840849175
  0
VERTEX
  8
pcb
 10
1.1183337202117
 20
-11.1197523318853
 42
0.0893194810994
  0
VERTEX
  8
pcb
 10
1.1602361346233
 20
-11.1266390810387
 42
0.1607635935219
  0
VERTEX
  8
pcb
 10
1.2215642596233
 20
-11.1082797060387
 42
0.1803719056881
  0
VERTEX
  8
pcb
 10
1.2555486346233
 20
-11.0606234560387
 42
0.0454554179435
  0
VERTEX
  8
pcb
 10
1.259844648309
 20
-11.025398094967
 42
0.0124196302122
  0
VERTEX
  8
pcb
 10
1.2606267596233
 20
-10.9899203310387
 42
0.0
  0
VERTEX
  8
pcb
 10
1.2606267596233
 20
-10.8434359560387
 42
0.0
  0
SEQEND
  0
POLYLINE
  8
pcb
 66
     1
 10
0.0
 20
0.0
 30
0.0
 70
     1
  0
VERTEX
  8
pcb
 10
0.7555486346233
 20
-11.3141390810387
 42
0.0
  0
VERTEX
  8
pcb
 10
1.3282048846233
 20
-11.3141390810387
 42
0.0
  0
VERTEX
  8
pcb
 10
1.3282048846233
 20
-11.3899203310387
 42
0.0
  0
VERTEX
  8
pcb
 10
0.7555486346233
 20
-11.3899203310387
 42
0.0
  0
SEQEND
  0
POLYLINE
  8
pcb
 66
     1
 10
0.0
 20
0.0
 30
0.0
 70
     1
  0
VERTEX
  8
pcb
 10
1.0344548846233
 20
-11.5004672060387
 42
-0.0755219358392
  0
VERTEX
  8
pcb
 10
1.1534542244521
 20
-11.5169691558242
 42
-0.1162575172044
  0
VERTEX
  8
pcb
 10
1.2575017596233
 20
-11.5770297060387
 42
-0.110440058458
  0
VERTEX
  8
pcb
 10
1.3191365918384
 20
-11.6671829988961
 42
-0.0950772548111
  0
VERTEX
  8
pcb
 10
1.3383611346233
 20
-11.7746859560387
 42
-0.1373029328273
  0
VERTEX
  8
pcb
 10
1.3004705096233
 20
-11.9176547060387
 42
-0.1490710094182
  0
VERTEX
  8
pcb
 10
1.1946111346233
 20
-12.0145297060387
 42
-0.0637748317369
  0
VERTEX
  8
pcb
 10
1.119814613245
 20
-12.0402892416375
 42
-0.0519268234366
  0
VERTEX
  8
pcb
 10
1.0410955096233
 20
-12.0481234560387
 42
-0.0536459002937
  0
VERTEX
  8
pcb
 10
0.9610592152843
 20
-12.0398845839273
 42
-0.0649575452622
  0
VERTEX
  8
pcb
 10
0.8852361346233
 20
-12.0129672060387
 42
-0.1529294833761
  0
VERTEX
  8
pcb
 10
0.7809392596233
 20
-11.9133578310387
 42
-0.1274870873057
  0
VERTEX
  8
pcb
 10
0.7457830096233
 20
-11.7742953310387
 42
-0.0647339934626
  0
VERTEX
  8
pcb
 10
0.7551358039484
 20
-11.6992787594878
 42
-0.0736140800883
  0
VERTEX
  8
pcb
 10
0.7848455096233
 20
-11.6297640810387
 42
-0.14607567983
  0
VERTEX
  8
pcb
 10
0.8914861346233
 20
-11.5332797060387
 42
-0.1149683302595
  0
SEQEND
  0
POLYLINE
  8
pcb
 66
     1
 10
0.0
 20
0.0
 30
0.0
 70
     1
  0
VERTEX
  8
pcb
 10
1.0332830096233
 20
-11.5785922060387
 42
0.0752161044671
  0
VERTEX
  8
pcb
 10
0.9463120825834
 20
-11.590636004443
 42
0.1134008652075
  0
VERTEX
  8
pcb
 10
0.8700017596233
 20
-11.6340609560387
 42
0.2160244025105
  0
VERTEX
  8
pcb
 10
0.8106267596233
 20
-11.7739047060387
 42
0.1004131017571
  0
VERTEX
  8
pcb
 10
0.8252408765331
 20
-11.8508323537744
 42
0.1094265138339
  0
VERTEX
  8
pcb
 10
0.8707830096233
 20
-11.9145297060387
 42
0.1173122553422
  0
VERTEX
  8
pcb
 10
0.9508940012535
 20
-11.9583917437061
 42
0.0701955879676
  0
VERTEX
  8
pcb
 10
1.0414861346233
 20
-11.9699984560387
 42
0.0454015312629
  0
VERTEX
  8
pcb
 10
1.1037072811724
 20
-11.9646499315916
 42
0.0622147484132
  0
VERTEX
  8
pcb
 10
1.1633611346233
 20
-11.9461703310387
 42
0.1522664228306
  0
VERTEX
  8
pcb
 10
1.2442205096233
 20
-11.8770297060387
 42
0.1457642956471
  0
VERTEX
  8
pcb
 10
1.2731267596233
 20
-11.7750765810387
 42
0.2000977534392
  0
VERTEX
  8
pcb
 10
1.2176580096233
 20
-11.6364047060387
 42
0.0827694302803
  0
VERTEX
  8
pcb
 10
1.177713307992
 20
-11.6068063855292
 42
0.0773392186376
  0
VERTEX
  8
pcb
 10
1.1071412022756
 20
-11.5842884220487
 42
0.0420510070171
  0
SEQEND
  0
POLYLINE
  8
pcb
 66
     1
 10
0.0
 20
0.0
 30
0.0
 70
     1
  0
VERTEX
  8
pcb
 10
2.9801580528058
 20
-10.4285209318069
 42
0.0
  0
VERTEX
  8
pcb
 10
3.0473455528058
 20
-10.4285209318069
 42
0.0
  0
VERTEX
  8
pcb
 10
3.0477361778058
 20
-10.6710990568069
 42
0.0
  0
VERTEX
  8
pcb
 10
2.8352361778058
 20
-10.6710990568069
 42
-0.0774021438219
  0
VERTEX
  8
pcb
 10
2.7680486778058
 20
-10.5558646818069
 42
-0.0906617406007
  0
VERTEX
  8
pcb
 10
2.7457830528058
 20
-10.4339896818069
 42
-0.1219233792707
  0
VERTEX
  8
pcb
 10
2.7817205528058
 20
-10.2804740568069
 42
-0.1573130286758
  0
VERTEX
  8
pcb
 10
2.8864080528058
 20
-10.1765678068069
 42
-0.1206881723119
  0
VERTEX
  8
pcb
 10
3.0391424278058
 20
-10.1414115568069
 42
-0.1139490429369
  0
VERTEX
  8
pcb
 10
3.1950018028058
 20
-10.1761771818069
 42
-0.0738058411306
  0
VERTEX
  8
pcb
 10
3.2570757759411
 20
-10.2178302306835
 42
-0.0844132093885
  0
VERTEX
  8
pcb
 10
3.3028143028058
 20
-10.2769584318069
 42
-0.0685050712349
  0
VERTEX
  8
pcb
 10
3.3298165742706
 20
-10.3503527078332
 42
-0.0548966733401
  0
VERTEX
  8
pcb
 10
3.3379705528058
 20
-10.4281303068069
 42
-0.09705672173
  0
VERTEX
  8
pcb
 10
3.3176580528058
 20
-10.5402396818069
 42
-0.0569709222661
  0
VERTEX
  8
pcb
 10
3.2949642258016
 20
-10.5833993913858
 42
-0.0744130647164
  0
VERTEX
  8
pcb
 10
3.2617986778058
 20
-10.6191459318069
 42
-0.0629253232855
  0
VERTEX
  8
pcb
 10
3.2171791029811
 20
-10.6457022415046
 42
-0.0417947631761
  0
VERTEX
  8
pcb
 10
3.1680486778058
 20
-10.6625053068069
 42
0.0
  0
VERTEX
  8
pcb
 10
3.1492986778058
 20
-10.5941459318069
 42
0.0329802938764
  0
VERTEX
  8
pcb
 10
3.1850952383227
 20
-10.5811814683812
 42
0.0579966641546
  0
VERTEX
  8
pcb
 10
3.2180486778058
 20
-10.5621146818069
 42
0.1316721598982
  0
VERTEX
  8
pcb
 10
3.2578924278058
 20
-10.5074271818069
 42
0.1021918078377
  0
VERTEX
  8
pcb
 10
3.2731268028058
 20
-10.4285209318069
 42
0.0410027331706
  0
VERTEX
  8
pcb
 10
3.2695906985942
 20
-10.3828019278637
 42
0.0589117368515
  0
VERTEX
  8
pcb
 10
3.2571111778058
 20
-10.3386771818069
 42
0.1113183971007
  0
VERTEX
  8
pcb
 10
3.2157049278058
 20
-10.2773490568069
 42
0.0841985162712
  0
VERTEX
  8
pcb
 10
3.1590643028058
 20
-10.2414115568069
 42
0.0987131177403
  0
VERTEX
  8
pcb
 10
3.0438299278058
 20
-10.2195365568069
 42
0.0459585446087
  0
VERTEX
  8
pcb
 10
2.9782423204253
 20
-10.2251563150946
 42
0.071377304991
  0
VERTEX
  8
pcb
 10
2.9157049278058
 20
-10.2457084318069
 42
0.1641311245735
  0
VERTEX
  8
pcb
 10
2.8391424278058
 20
-10.3226615568069
 42
0.1172113872264
  0
VERTEX
  8
pcb
 10
2.8141424278058
 20
-10.4296928068069
 42
0.0962700372958
  0
VERTEX
  8
pcb
 10
2.8328924278058
 20
-10.5257865568069
 42
0.0281896528337
  0
VERTEX
  8
pcb
 10
2.8503592220022
 20
-10.5629595714568
 42
0.0550847851781
  0
VERTEX
  8
pcb
 10
2.8735174278058
 20
-10.5968803068069
 42
0.0
  0
VERTEX
  8
pcb
 10
2.9801580528058
 20
-10.5968803068069
 42
0.0
  0
SEQEND
  0
POLYLINE
  8
pcb
 66
     1
 10
0.0
 20
0.0
 30
0.0
 70
     1
  0
VERTEX
  8
pcb
 10
2.7555486778058
 20
-10.7820365568069
 42
0.0
  0
VERTEX
  8
pcb
 10
3.3282049278058
 20
-10.7820365568069
 42
0.0
  0
VERTEX
  8
pcb
 10
3.3282049278058
 20
-10.8597709318069
 42
0.0
  0
VERTEX
  8
pcb
 10
2.8785955528058
 20
-11.1605521818069
 42
0.0
  0
VERTEX
  8
pcb
 10
3.3282049278058
 20
-11.1605521818069
 42
0.0
  0
VERTEX
  8
pcb
 10
3.3282049278058
 20
-11.2332084318069
 42
0.0
  0
VERTEX
  8
pcb
 10
2.7555486778058
 20
-11.2332084318069
 42
0.0
  0
VERTEX
  8
pcb
 10
2.7555486778058
 20
-11.1554740568069
 42
0.0
  0
VERTEX
  8
pcb
 10
3.2055486778058
 20
-10.8546928068069
 42
0.0
  0
VERTEX
  8
pcb
 10
2.7555486778058
 20
-10.8546928068069
 42
0.0
  0
SEQEND
  0
POLYLINE
  8
pcb
 66
     1
 10
0.0
 20
0.0
 30
0.0
 70
     1
  0
VERTEX
  8
pcb
 10
2.7555486778058
 20
-11.3605521818069
 42
0.0
  0
VERTEX
  8
pcb
 10
3.3282049278058
 20
-11.3605521818069
 42
0.0
  0
VERTEX
  8
pcb
 10
3.3282049278058
 20
-11.5578178068069
 42
-0.016137116077
  0
VERTEX
  8
pcb
 10
3.3267150916793
 20
-11.6090045133428
 42
-0.0391112567175
  0
VERTEX
  8
pcb
 10
3.3200018028058
 20
-11.6597709318069
 42
-0.122098925098
  0
VERTEX
  8
pcb
 10
3.2789861778058
 20
-11.7437553068069
 42
-0.1308242621834
  0
VERTEX
  8
pcb
 10
3.1809393028058
 20
-11.8113334318069
 42
-0.0520957813425
  0
VERTEX
  8
pcb
 10
3.1140027978014
 20
-11.8288550938226
 42
-0.0390738404739
  0
VERTEX
  8
pcb
 10
3.0450018028058
 20
-11.8339896818069
 42
-0.0728533036782
  0
VERTEX
  8
pcb
 10
2.9293768028058
 20
-11.8187553068069
 42
-0.0812812513675
  0
VERTEX
  8
pcb
 10
2.8457830528058
 20
-11.7796928068069
 42
-0.0880094177636
  0
VERTEX
  8
pcb
 10
2.7938299278058
 20
-11.7273490568069
 42
-0.0872042627638
  0
VERTEX
  8
pcb
 10
2.7653143028058
 20
-11.6589896818069
 42
-0.0593308924267
  0
VERTEX
  8
pcb
 10
2.7555486778058
 20
-11.5671928068069
 42
0.0
  0
SEQEND
  0
POLYLINE
  8
pcb
 66
     1
 10
0.0
 20
0.0
 30
0.0
 70
     1
  0
VERTEX
  8
pcb
 10
2.8231268028058
 20
-11.4363334318069
 42
0.0
  0
VERTEX
  8
pcb
 10
2.8231268028058
 20
-11.5585990568069
 42
0.0246595720737
  0
VERTEX
  8
pcb
 10
2.8251329309189
 20
-11.6033236101289
 42
0.0531082248486
  0
VERTEX
  8
pcb
 10
2.8336736778058
 20
-11.6472709318069
 42
0.1178436831411
  0
VERTEX
  8
pcb
 10
2.8633611778058
 20
-11.6988334318069
 42
0.0689157920702
  0
VERTEX
  8
pcb
 10
2.8970398942666
 20
-11.7239749242508
 42
0.0484175196789
  0
VERTEX
  8
pcb
 10
2.9356268028058
 20
-11.7406303068069
 42
0.0489201178002
  0
VERTEX
  8
pcb
 10
2.9902994055244
 20
-11.7526074507105
 42
0.0311469107652
  0
VERTEX
  8
pcb
 10
3.0461736778058
 20
-11.7558646818069
 42
0.0446342035386
  0
VERTEX
  8
pcb
 10
3.1170799073536
 20
-11.7501289465009
 42
0.0923979254201
  0
VERTEX
  8
pcb
 10
3.1840643028058
 20
-11.7261771818069
 42
0.0672885363117
  0
VERTEX
  8
pcb
 10
3.2224600213448
 20
-11.6958539063955
 42
0.0976563722937
  0
VERTEX
  8
pcb
 10
3.2489080528058
 20
-11.6546928068069
 42
0.0644354004709
  0
VERTEX
  8
pcb
 10
3.2586284032249
 20
-11.6061308318492
 42
0.0226409596854
  0
VERTEX
  8
pcb
 10
3.2606268028058
 20
-11.5566459318069
 42
0.0
  0
VERTEX
  8
pcb
 10
3.2606268028058
 20
-11.4363334318069
 42
0.0
  0
SEQEND
  0
POLYLINE
  8
pcb
 66
     1
 10
0.0
 20
0.0
 30
0.0
 70
     1
  0
VERTEX
  8
pcb
 10
4.8600605108418
 20
-10.2230128907348
 42
0.0
  0
VERTEX
  8
pcb
 10
4.8663105108418
 20
-10.2968410157348
 42
0.0640074528652
  0
VERTEX
  8
pcb
 10
4.8224643065036
 20
-10.3088789969351
 42
0.1055859720331
  0
VERTEX
  8
pcb
 10
4.7850605108418
 20
-10.3347316407348
 42
0.1911136501297
  0
VERTEX
  8
pcb
 10
4.7581073858418
 20
-10.4069972657348
 42
0.2196300566215
  0
VERTEX
  8
pcb
 10
4.7963886358418
 20
-10.4929347657348
 42
0.1094246752117
  0
VERTEX
  8
pcb
 10
4.8437950067229
 20
-10.5202625592321
 42
0.0779525717475
  0
VERTEX
  8
pcb
 10
4.8979511358418
 20
-10.5280910157348
 42
0.0797625081186
  0
VERTEX
  8
pcb
 10
4.9488165709713
 20
-10.5206079071756
 42
0.1156241714699
  0
VERTEX
  8
pcb
 10
4.9928730108418
 20
-10.4941066407348
 42
0.112490663966
  0
VERTEX
  8
pcb
 10
5.0195659533877
 20
-10.4536323783964
 42
0.0903841059346
  0
VERTEX
  8
pcb
 10
5.0276386358418
 20
-10.4058253907348
 42
0.1325213521586
  0
VERTEX
  8
pcb
 10
5.0120136358418
 20
-10.3444972657348
 42
0.126601836866
  0
VERTEX
  8
pcb
 10
4.9721698858418
 20
-10.3015285157348
 42
0.0
  0
VERTEX
  8
pcb
 10
4.9807636358418
 20
-10.2355128907348
 42
0.0
  0
VERTEX
  8
pcb
 10
5.2749042608418
 20
-10.2909816407348
 42
0.0
  0
VERTEX
  8
pcb
 10
5.2749042608418
 20
-10.5757472657348
 42
0.0
  0
VERTEX
  8
pcb
 10
5.2077167608418
 20
-10.5757472657348
 42
0.0
  0
VERTEX
  8
pcb
 10
5.2077167608418
 20
-10.3472316407348
 42
0.0
  0
VERTEX
  8
pcb
 10
5.0538105108418
 20
-10.3163722657348
 42
-0.0700338046017
  0
VERTEX
  8
pcb
 10
5.0802439013676
 20
-10.3676624760667
 42
-0.0831499789291
  0
VERTEX
  8
pcb
 10
5.0897480108418
 20
-10.4245753907348
 42
-0.0975910369914
  0
VERTEX
  8
pcb
 10
5.0769444581399
 20
-10.4932640902909
 42
-0.1018866988646
  0
VERTEX
  8
pcb
 10
5.0377948858418
 20
-10.5511378907348
 42
-0.108206465793
  0
VERTEX
  8
pcb
 10
4.9762851744867
 20
-10.590617711424
 42
-0.0892901584474
  0
VERTEX
  8
pcb
 10
4.9042011358418
 20
-10.6027003907348
 42
-0.0800773999475
  0
VERTEX
  8
pcb
 10
4.8330467854889
 20
-10.5918079175647
 42
-0.0900123574377
  0
VERTEX
  8
pcb
 10
4.7698261358418
 20
-10.5573878907348
 42
-0.1217732234708
  0
VERTEX
  8
pcb
 10
4.7169164423754
 20
-10.4905812710017
 42
-0.1065169179349
  0
VERTEX
  8
pcb
 10
4.7002948858418
 20
-10.4069972657348
 42
-0.078217362282
  0
VERTEX
  8
pcb
 10
4.7102222113289
 20
-10.3390379073682
 42
-0.1040448428024
  0
VERTEX
  8
pcb
 10
4.7440448858418
 20
-10.2792628907348
 42
-0.1022936507223
  0
VERTEX
  8
pcb
 10
4.7965598313997
 20
-10.2398088469774
 42
-0.0863469407818
  0
SEQEND
  0
POLYLINE
  8
pcb
 66
     1
 10
0.0
 20
0.0
 30
0.0
 70
     1
  0
VERTEX
  8
pcb
 10
4.7100605108418
 20
-10.8601222657348
 42
0.0
  0
VERTEX
  8
pcb
 10
5.2827167608418
 20
-10.6382472657348
 42
0.0
  0
VERTEX
  8
pcb
 10
5.2827167608418
 20
-10.7202785157348
 42
0.0
  0
VERTEX
  8
pcb
 10
4.8667011358418
 20
-10.8691066407348
 42
-0.0186032196978
  0
VERTEX
  8
pcb
 10
4.7729511358418
 20
-10.8991847657348
 42
-0.0206639948703
  0
VERTEX
  8
pcb
 10
4.8667011358418
 20
-10.9300441407348
 42
0.0
  0
VERTEX
  8
pcb
 10
5.2827167608418
 20
-11.0847316407348
 42
0.0
  0
VERTEX
  8
pcb
 10
5.2827167608418
 20
-11.1620753907348
 42
0.0
  0
VERTEX
  8
pcb
 10
4.7100605108418
 20
-10.9378566407348
 42
0.0
  0
SEQEND
  0
POLYLINE
  8
pcb
 66
     1
 10
0.0
 20
0.0
 30
0.0
 70
     1
  0
VERTEX
  8
pcb
 10
4.7216468615448
 20
2.9058559273485
 42
0.0
  0
VERTEX
  8
pcb
 10
5.2943031115448
 20
2.9058559273485
 42
0.0
  0
VERTEX
  8
pcb
 10
5.2943031115448
 20
2.5195278023485
 42
0.0
  0
VERTEX
  8
pcb
 10
5.2267249865448
 20
2.5195278023485
 42
0.0
  0
VERTEX
  8
pcb
 10
5.2267249865448
 20
2.8300746773485
 42
0.0
  0
VERTEX
  8
pcb
 10
5.0493812365448
 20
2.8300746773485
 42
0.0
  0
VERTEX
  8
pcb
 10
5.0493812365448
 20
2.5613246773485
 42
0.0
  0
VERTEX
  8
pcb
 10
4.9818031115448
 20
2.5613246773485
 42
0.0
  0
VERTEX
  8
pcb
 10
4.9818031115448
 20
2.8300746773485
 42
0.0
  0
VERTEX
  8
pcb
 10
4.7216468615448
 20
2.8300746773485
 42
0.0
  0
SEQEND
  0
POLYLINE
  8
pcb
 66
     1
 10
0.0
 20
0.0
 30
0.0
 70
     1
  0
VERTEX
  8
pcb
 10
4.7216468615448
 20
2.4839809273485
 42
0.0
  0
VERTEX
  8
pcb
 10
5.2943031115448
 20
2.2640590523485
 42
0.0
  0
VERTEX
  8
pcb
 10
5.2943031115448
 20
2.1824184273485
 42
0.0
  0
VERTEX
  8
pcb
 10
4.7216468615448
 20
1.9480434273485
 42
0.0
  0
VERTEX
  8
pcb
 10
4.7216468615448
 20
2.0343715523485
 42
0.0
  0
VERTEX
  8
pcb
 10
4.8950843615448
 20
2.1011684273485
 42
0.0
  0
VERTEX
  8
pcb
 10
4.8950843615448
 20
2.3406215523485
 42
0.0
  0
VERTEX
  8
pcb
 10
4.7216468615448
 20
2.4035121773485
 42
0.0
  0
SEQEND
  0
POLYLINE
  8
pcb
 66
     1
 10
0.0
 20
0.0
 30
0.0
 70
     1
  0
VERTEX
  8
pcb
 10
4.9568031115448
 20
2.3187465523485
 42
0.0
  0
VERTEX
  8
pcb
 10
4.9568031115448
 20
2.1246059273485
 42
0.0
  0
VERTEX
  8
pcb
 10
5.1153968615448
 20
2.1843715523485
 42
-0.0195105314953
  0
VERTEX
  8
pcb
 10
5.2341468615448
 20
2.2249965523485
 42
-0.0389803463023
  0
VERTEX
  8
pcb
 10
5.1247718615448
 20
2.2558559273485
 42
0.0
  0
SEQEND
  0
POLYLINE
  8
pcb
 66
     1
 10
0.0
 20
0.0
 30
0.0
 70
     1
  0
VERTEX
  8
pcb
 10
4.7216468615448
 20
1.8878871773485
 42
0.0
  0
VERTEX
  8
pcb
 10
5.2943031115448
 20
1.8878871773485
 42
0.0
  0
VERTEX
  8
pcb
 10
5.2943031115448
 20
1.8101528023485
 42
0.0
  0
VERTEX
  8
pcb
 10
4.8446937365448
 20
1.5093715523485
 42
0.0
  0
VERTEX
  8
pcb
 10
5.2943031115448
 20
1.5093715523485
 42
0.0
  0
VERTEX
  8
pcb
 10
5.2943031115448
 20
1.4367153023485
 42
0.0
  0
VERTEX
  8
pcb
 10
4.7216468615448
 20
1.4367153023485
 42
0.0
  0
VERTEX
  8
pcb
 10
4.7216468615448
 20
1.5144496773485
 42
0.0
  0
VERTEX
  8
pcb
 10
5.1716468615448
 20
1.8152309273485
 42
0.0
  0
VERTEX
  8
pcb
 10
4.7216468615448
 20
1.8152309273485
 42
0.0
  0
SEQEND
  0
POLYLINE
  8
pcb
 66
     1
 10
0.0
 20
0.0
 30
0.0
 70
     1
  0
VERTEX
  8
pcb
 10
4.8142249865448
 20
1.1706996773485
 42
0.0
  0
VERTEX
  8
pcb
 10
4.9712562365448
 20
1.1706996773485
 42
0.0
  0
VERTEX
  8
pcb
 10
4.9712562365448
 20
1.3265590523485
 42
0.0
  0
VERTEX
  8
pcb
 10
5.0368812365448
 20
1.3265590523485
 42
0.0
  0
VERTEX
  8
pcb
 10
5.0368812365448
 20
1.1706996773485
 42
0.0
  0
VERTEX
  8
pcb
 10
5.1927406115448
 20
1.1706996773485
 42
0.0
  0
VERTEX
  8
pcb
 10
5.1927406115448
 20
1.1042934273485
 42
0.0
  0
VERTEX
  8
pcb
 10
5.0368812365448
 20
1.1042934273485
 42
0.0
  0
VERTEX
  8
pcb
 10
5.0368812365448
 20
0.9484340523485
 42
0.0
  0
VERTEX
  8
pcb
 10
4.9712562365448
 20
0.9484340523485
 42
0.0
  0
VERTEX
  8
pcb
 10
4.9712562365448
 20
1.1042934273485
 42
0.0
  0
VERTEX
  8
pcb
 10
4.8142249865448
 20
1.1042934273485
 42
0.0
  0
SEQEND
  0
POLYLINE
  8
pcb
 66
     1
 10
0.0
 20
0.0
 30
0.0
 70
     1
  0
VERTEX
  8
pcb
 10
2.7670562622622
 20
2.8775949749402
 42
0.0
  0
VERTEX
  8
pcb
 10
3.3397125122622
 20
2.8775949749402
 42
0.0
  0
VERTEX
  8
pcb
 10
3.3397125122622
 20
2.4912668499402
 42
0.0
  0
VERTEX
  8
pcb
 10
3.2721343872622
 20
2.4912668499402
 42
0.0
  0
VERTEX
  8
pcb
 10
3.2721343872622
 20
2.8018137249402
 42
0.0
  0
VERTEX
  8
pcb
 10
3.0947906372622
 20
2.8018137249402
 42
0.0
  0
VERTEX
  8
pcb
 10
3.0947906372622
 20
2.5330637249402
 42
0.0
  0
VERTEX
  8
pcb
 10
3.0272125122622
 20
2.5330637249402
 42
0.0
  0
VERTEX
  8
pcb
 10
3.0272125122622
 20
2.8018137249402
 42
0.0
  0
VERTEX
  8
pcb
 10
2.7670562622622
 20
2.8018137249402
 42
0.0
  0
SEQEND
  0
POLYLINE
  8
pcb
 66
     1
 10
0.0
 20
0.0
 30
0.0
 70
     1
  0
VERTEX
  8
pcb
 10
2.7670562622622
 20
2.4557199749402
 42
0.0
  0
VERTEX
  8
pcb
 10
3.3397125122622
 20
2.2357980999402
 42
0.0
  0
VERTEX
  8
pcb
 10
3.3397125122622
 20
2.1541574749402
 42
0.0
  0
VERTEX
  8
pcb
 10
2.7670562622622
 20
1.9197824749402
 42
0.0
  0
VERTEX
  8
pcb
 10
2.7670562622622
 20
2.0061105999402
 42
0.0
  0
VERTEX
  8
pcb
 10
2.9404937622622
 20
2.0729074749402
 42
0.0
  0
VERTEX
  8
pcb
 10
2.9404937622622
 20
2.3123605999402
 42
0.0
  0
VERTEX
  8
pcb
 10
2.7670562622622
 20
2.3752512249402
 42
0.0
  0
SEQEND
  0
POLYLINE
  8
pcb
 66
     1
 10
0.0
 20
0.0
 30
0.0
 70
     1
  0
VERTEX
  8
pcb
 10
3.0022125122622
 20
2.2904855999402
 42
0.0
  0
VERTEX
  8
pcb
 10
3.0022125122622
 20
2.0963449749402
 42
0.0
  0
VERTEX
  8
pcb
 10
3.1608062622622
 20
2.1561105999402
 42
-0.0195105314953
  0
VERTEX
  8
pcb
 10
3.2795562622622
 20
2.1967355999402
 42
-0.0389803463023
  0
VERTEX
  8
pcb
 10
3.1701812622622
 20
2.2275949749402
 42
0.0
  0
SEQEND
  0
POLYLINE
  8
pcb
 66
     1
 10
0.0
 20
0.0
 30
0.0
 70
     1
  0
VERTEX
  8
pcb
 10
2.7670562622622
 20
1.8596262249402
 42
0.0
  0
VERTEX
  8
pcb
 10
3.3397125122622
 20
1.8596262249402
 42
0.0
  0
VERTEX
  8
pcb
 10
3.3397125122622
 20
1.7818918499402
 42
0.0
  0
VERTEX
  8
pcb
 10
2.8901031372622
 20
1.4811105999402
 42
0.0
  0
VERTEX
  8
pcb
 10
3.3397125122622
 20
1.4811105999402
 42
0.0
  0
VERTEX
  8
pcb
 10
3.3397125122622
 20
1.4084543499402
 42
0.0
  0
VERTEX
  8
pcb
 10
2.7670562622622
 20
1.4084543499402
 42
0.0
  0
VERTEX
  8
pcb
 10
2.7670562622622
 20
1.4861887249402
 42
0.0
  0
VERTEX
  8
pcb
 10
3.2170562622622
 20
1.7869699749402
 42
0.0
  0
VERTEX
  8
pcb
 10
2.7670562622622
 20
1.7869699749402
 42
0.0
  0
SEQEND
  0
POLYLINE
  8
pcb
 66
     1
 10
0.0
 20
0.0
 30
0.0
 70
     1
  0
VERTEX
  8
pcb
 10
2.9389312622622
 20
1.3174387249402
 42
0.0
  0
VERTEX
  8
pcb
 10
3.0096343872622
 20
1.3174387249402
 42
0.0
  0
VERTEX
  8
pcb
 10
3.0096343872622
 20
1.1014230999402
 42
0.0
  0
VERTEX
  8
pcb
 10
2.9389312622622
 20
1.1014230999402
 42
0.0
  0
SEQEND
  0
POLYLINE
  8
pcb
 66
     1
 10
0.0
 20
0.0
 30
0.0
 70
     1
  0
VERTEX
  8
pcb
 10
0.0
 20
-9.0
 42
0.0
  0
VERTEX
  8
pcb
 10
6.0
 20
-9.0
 42
0.0
  0
VERTEX
  8
pcb
 10
6.0
 20
0.0
 42
0.0
  0
VERTEX
  8
pcb
 10
0.0
 20
0.0
 42
0.0
  0
SEQEND
  0
ENDSEC
  0
EOF
